<?xml version="1.0" encoding="UTF-8" standalone="no"?>
<!DOCTYPE svg PUBLIC "-//W3C//DTD SVG 1.1//EN"
 "http://www.w3.org/Graphics/SVG/1.1/DTD/svg11.dtd">
<!-- Generated by graphviz version 2.30.1 (20170916.1124)
 -->
<!-- Title: snakemake_dag Pages: 1 -->
<svg width="8750pt" height="338pt"
 viewBox="0.00 0.00 8750.00 338.00" xmlns="http://www.w3.org/2000/svg" xmlns:xlink="http://www.w3.org/1999/xlink">
<g id="graph0" class="graph" transform="scale(1 1) rotate(0) translate(4 334)">
<title>snakemake_dag</title>
<polygon fill="white" stroke="white" points="-4,5 -4,-334 8747,-334 8747,5 -4,5"/>
<!-- 0 -->
<g id="node1" class="node"><title>0</title>
<path fill="none" stroke="#56d88a" stroke-width="2" d="M4383,-36C4383,-36 4353,-36 4353,-36 4347,-36 4341,-30 4341,-24 4341,-24 4341,-12 4341,-12 4341,-6 4347,-0 4353,-0 4353,-0 4383,-0 4383,-0 4389,-0 4395,-6 4395,-12 4395,-12 4395,-24 4395,-24 4395,-30 4389,-36 4383,-36"/>
<text text-anchor="middle" x="4368" y="-15.5" font-family="sans" font-size="10.00">all</text>
</g>
<!-- 1 -->
<g id="node2" class="node"><title>1</title>
<path fill="none" stroke="#56c1d8" stroke-width="2" d="M4393,-180C4393,-180 4343,-180 4343,-180 4337,-180 4331,-174 4331,-168 4331,-168 4331,-156 4331,-156 4331,-150 4337,-144 4343,-144 4343,-144 4393,-144 4393,-144 4399,-144 4405,-150 4405,-156 4405,-156 4405,-168 4405,-168 4405,-174 4399,-180 4393,-180"/>
<text text-anchor="middle" x="4368" y="-159.5" font-family="sans" font-size="10.00">trainModels</text>
</g>
<!-- 1&#45;&gt;0 -->
<g id="edge1" class="edge"><title>1&#45;&gt;0</title>
<path fill="none" stroke="grey" stroke-width="2" d="M4360.52,-143.704C4356.53,-133.522 4352.03,-120.272 4350,-108 4347.39,-92.2139 4347.39,-87.7861 4350,-72 4351.44,-63.2752 4354.13,-54.0563 4357,-45.7969"/>
<polygon fill="grey" stroke="grey" points="4360.33,-46.889 4360.52,-36.2958 4353.77,-44.4583 4360.33,-46.889"/>
</g>
<!-- 78 -->
<g id="node79" class="node"><title>78</title>
<path fill="none" stroke="#d85656" stroke-width="2" d="M4441,-108C4441,-108 4371,-108 4371,-108 4365,-108 4359,-102 4359,-96 4359,-96 4359,-84 4359,-84 4359,-78 4365,-72 4371,-72 4371,-72 4441,-72 4441,-72 4447,-72 4453,-78 4453,-84 4453,-84 4453,-96 4453,-96 4453,-102 4447,-108 4441,-108"/>
<text text-anchor="middle" x="4406" y="-87.5" font-family="sans" font-size="10.00">combineResults</text>
</g>
<!-- 1&#45;&gt;78 -->
<g id="edge79" class="edge"><title>1&#45;&gt;78</title>
<path fill="none" stroke="grey" stroke-width="2" d="M4377.39,-143.697C4381.76,-135.644 4387.06,-125.894 4391.9,-116.982"/>
<polygon fill="grey" stroke="grey" points="4395.02,-118.563 4396.71,-108.104 4388.87,-115.223 4395.02,-118.563"/>
</g>
<!-- 2 -->
<g id="node3" class="node"><title>2</title>
<path fill="none" stroke="#d8bc56" stroke-width="2" stroke-dasharray="5,2" d="M4392,-252C4392,-252 4344,-252 4344,-252 4338,-252 4332,-246 4332,-240 4332,-240 4332,-228 4332,-228 4332,-222 4338,-216 4344,-216 4344,-216 4392,-216 4392,-216 4398,-216 4404,-222 4404,-228 4404,-228 4404,-240 4404,-240 4404,-246 4398,-252 4392,-252"/>
<text text-anchor="middle" x="4368" y="-231.5" font-family="sans" font-size="10.00">mergeNpzs</text>
</g>
<!-- 2&#45;&gt;1 -->
<g id="edge3" class="edge"><title>2&#45;&gt;1</title>
<path fill="none" stroke="grey" stroke-width="2" d="M4368,-215.697C4368,-207.983 4368,-198.712 4368,-190.112"/>
<polygon fill="grey" stroke="grey" points="4371.5,-190.104 4368,-180.104 4364.5,-190.104 4371.5,-190.104"/>
</g>
<!-- 3 -->
<g id="node4" class="node"><title>3</title>
<path fill="none" stroke="#88d856" stroke-width="2" stroke-dasharray="5,2" d="M88,-329.5C88,-329.5 12,-329.5 12,-329.5 6,-329.5 0,-323.5 0,-317.5 0,-317.5 0,-300.5 0,-300.5 0,-294.5 6,-288.5 12,-288.5 12,-288.5 88,-288.5 88,-288.5 94,-288.5 100,-294.5 100,-300.5 100,-300.5 100,-317.5 100,-317.5 100,-323.5 94,-329.5 88,-329.5"/>
<text text-anchor="middle" x="50" y="-317.5" font-family="sans" font-size="10.00">createBatchNpz</text>
<text text-anchor="middle" x="50" y="-306.5" font-family="sans" font-size="10.00">batch: batch_380</text>
<text text-anchor="middle" x="50" y="-295.5" font-family="sans" font-size="10.00">simtype: neut</text>
</g>
<!-- 3&#45;&gt;2 -->
<g id="edge4" class="edge"><title>3&#45;&gt;2</title>
<path fill="none" stroke="grey" stroke-width="2" d="M100.26,-289.804C103.194,-289.104 106.122,-288.493 109,-288 327.476,-250.579 3873.74,-236.759 4321.63,-235.16"/>
<polygon fill="grey" stroke="grey" points="4321.94,-238.659 4331.93,-235.124 4321.91,-231.659 4321.94,-238.659"/>
</g>
<!-- 4 -->
<g id="node5" class="node"><title>4</title>
<path fill="none" stroke="#88d856" stroke-width="2" stroke-dasharray="5,2" d="M206,-329.5C206,-329.5 130,-329.5 130,-329.5 124,-329.5 118,-323.5 118,-317.5 118,-317.5 118,-300.5 118,-300.5 118,-294.5 124,-288.5 130,-288.5 130,-288.5 206,-288.5 206,-288.5 212,-288.5 218,-294.5 218,-300.5 218,-300.5 218,-317.5 218,-317.5 218,-323.5 212,-329.5 206,-329.5"/>
<text text-anchor="middle" x="168" y="-317.5" font-family="sans" font-size="10.00">createBatchNpz</text>
<text text-anchor="middle" x="168" y="-306.5" font-family="sans" font-size="10.00">batch: batch_240</text>
<text text-anchor="middle" x="168" y="-295.5" font-family="sans" font-size="10.00">simtype: neut</text>
</g>
<!-- 4&#45;&gt;2 -->
<g id="edge5" class="edge"><title>4&#45;&gt;2</title>
<path fill="none" stroke="grey" stroke-width="2" d="M218.26,-289.805C221.194,-289.105 224.122,-288.494 227,-288 439.198,-251.616 3880.31,-236.916 4321.55,-235.178"/>
<polygon fill="grey" stroke="grey" points="4321.72,-238.677 4331.71,-235.138 4321.7,-231.677 4321.72,-238.677"/>
</g>
<!-- 5 -->
<g id="node6" class="node"><title>5</title>
<path fill="none" stroke="#88d856" stroke-width="2" stroke-dasharray="5,2" d="M324,-329.5C324,-329.5 248,-329.5 248,-329.5 242,-329.5 236,-323.5 236,-317.5 236,-317.5 236,-300.5 236,-300.5 236,-294.5 242,-288.5 248,-288.5 248,-288.5 324,-288.5 324,-288.5 330,-288.5 336,-294.5 336,-300.5 336,-300.5 336,-317.5 336,-317.5 336,-323.5 330,-329.5 324,-329.5"/>
<text text-anchor="middle" x="286" y="-317.5" font-family="sans" font-size="10.00">createBatchNpz</text>
<text text-anchor="middle" x="286" y="-306.5" font-family="sans" font-size="10.00">batch: batch_300</text>
<text text-anchor="middle" x="286" y="-295.5" font-family="sans" font-size="10.00">simtype: neut</text>
</g>
<!-- 5&#45;&gt;2 -->
<g id="edge6" class="edge"><title>5&#45;&gt;2</title>
<path fill="none" stroke="grey" stroke-width="2" d="M336.26,-289.806C339.195,-289.106 342.122,-288.494 345,-288 550.934,-252.65 3887.37,-237.076 4321.55,-235.196"/>
<polygon fill="grey" stroke="grey" points="4321.86,-238.695 4331.84,-235.151 4321.83,-231.695 4321.86,-238.695"/>
</g>
<!-- 6 -->
<g id="node7" class="node"><title>6</title>
<path fill="none" stroke="#88d856" stroke-width="2" stroke-dasharray="5,2" d="M436,-329.5C436,-329.5 366,-329.5 366,-329.5 360,-329.5 354,-323.5 354,-317.5 354,-317.5 354,-300.5 354,-300.5 354,-294.5 360,-288.5 366,-288.5 366,-288.5 436,-288.5 436,-288.5 442,-288.5 448,-294.5 448,-300.5 448,-300.5 448,-317.5 448,-317.5 448,-323.5 442,-329.5 436,-329.5"/>
<text text-anchor="middle" x="401" y="-317.5" font-family="sans" font-size="10.00">createBatchNpz</text>
<text text-anchor="middle" x="401" y="-306.5" font-family="sans" font-size="10.00">batch: batch_80</text>
<text text-anchor="middle" x="401" y="-295.5" font-family="sans" font-size="10.00">simtype: neut</text>
</g>
<!-- 6&#45;&gt;2 -->
<g id="edge7" class="edge"><title>6&#45;&gt;2</title>
<path fill="none" stroke="grey" stroke-width="2" d="M448.057,-289.964C451.056,-289.198 454.054,-288.531 457,-288 656.755,-252.004 3895.68,-237.012 4321.85,-235.191"/>
<polygon fill="grey" stroke="grey" points="4321.98,-238.691 4331.96,-235.148 4321.95,-231.691 4321.98,-238.691"/>
</g>
<!-- 7 -->
<g id="node8" class="node"><title>7</title>
<path fill="none" stroke="#88d856" stroke-width="2" stroke-dasharray="5,2" d="M548,-329.5C548,-329.5 478,-329.5 478,-329.5 472,-329.5 466,-323.5 466,-317.5 466,-317.5 466,-300.5 466,-300.5 466,-294.5 472,-288.5 478,-288.5 478,-288.5 548,-288.5 548,-288.5 554,-288.5 560,-294.5 560,-300.5 560,-300.5 560,-317.5 560,-317.5 560,-323.5 554,-329.5 548,-329.5"/>
<text text-anchor="middle" x="513" y="-317.5" font-family="sans" font-size="10.00">createBatchNpz</text>
<text text-anchor="middle" x="513" y="-306.5" font-family="sans" font-size="10.00">batch: batch_60</text>
<text text-anchor="middle" x="513" y="-295.5" font-family="sans" font-size="10.00">simtype: neut</text>
</g>
<!-- 7&#45;&gt;2 -->
<g id="edge8" class="edge"><title>7&#45;&gt;2</title>
<path fill="none" stroke="grey" stroke-width="2" d="M560.057,-289.966C563.056,-289.199 566.054,-288.532 569,-288 762.78,-253.041 3901.14,-237.183 4321.57,-235.212"/>
<polygon fill="grey" stroke="grey" points="4321.85,-238.711 4331.83,-235.164 4321.81,-231.711 4321.85,-238.711"/>
</g>
<!-- 8 -->
<g id="node9" class="node"><title>8</title>
<path fill="none" stroke="#88d856" stroke-width="2" stroke-dasharray="5,2" d="M666,-329.5C666,-329.5 590,-329.5 590,-329.5 584,-329.5 578,-323.5 578,-317.5 578,-317.5 578,-300.5 578,-300.5 578,-294.5 584,-288.5 590,-288.5 590,-288.5 666,-288.5 666,-288.5 672,-288.5 678,-294.5 678,-300.5 678,-300.5 678,-317.5 678,-317.5 678,-323.5 672,-329.5 666,-329.5"/>
<text text-anchor="middle" x="628" y="-317.5" font-family="sans" font-size="10.00">createBatchNpz</text>
<text text-anchor="middle" x="628" y="-306.5" font-family="sans" font-size="10.00">batch: batch_340</text>
<text text-anchor="middle" x="628" y="-295.5" font-family="sans" font-size="10.00">simtype: neut</text>
</g>
<!-- 8&#45;&gt;2 -->
<g id="edge9" class="edge"><title>8&#45;&gt;2</title>
<path fill="none" stroke="grey" stroke-width="2" d="M678.261,-289.811C681.195,-289.11 684.122,-288.496 687,-288 874.828,-255.64 3909.36,-237.565 4321.74,-235.254"/>
<polygon fill="grey" stroke="grey" points="4321.83,-238.753 4331.81,-235.197 4321.79,-231.753 4321.83,-238.753"/>
</g>
<!-- 9 -->
<g id="node10" class="node"><title>9</title>
<path fill="none" stroke="#88d856" stroke-width="2" stroke-dasharray="5,2" d="M784,-329.5C784,-329.5 708,-329.5 708,-329.5 702,-329.5 696,-323.5 696,-317.5 696,-317.5 696,-300.5 696,-300.5 696,-294.5 702,-288.5 708,-288.5 708,-288.5 784,-288.5 784,-288.5 790,-288.5 796,-294.5 796,-300.5 796,-300.5 796,-317.5 796,-317.5 796,-323.5 790,-329.5 784,-329.5"/>
<text text-anchor="middle" x="746" y="-317.5" font-family="sans" font-size="10.00">createBatchNpz</text>
<text text-anchor="middle" x="746" y="-306.5" font-family="sans" font-size="10.00">batch: batch_160</text>
<text text-anchor="middle" x="746" y="-295.5" font-family="sans" font-size="10.00">simtype: neut</text>
</g>
<!-- 9&#45;&gt;2 -->
<g id="edge10" class="edge"><title>9&#45;&gt;2</title>
<path fill="none" stroke="grey" stroke-width="2" d="M796.261,-289.812C799.195,-289.111 802.122,-288.496 805,-288 986.567,-256.674 3916.52,-237.749 4321.67,-235.277"/>
<polygon fill="grey" stroke="grey" points="4321.87,-238.776 4331.85,-235.215 4321.83,-231.776 4321.87,-238.776"/>
</g>
<!-- 10 -->
<g id="node11" class="node"><title>10</title>
<path fill="none" stroke="#88d856" stroke-width="2" stroke-dasharray="5,2" d="M902,-329.5C902,-329.5 826,-329.5 826,-329.5 820,-329.5 814,-323.5 814,-317.5 814,-317.5 814,-300.5 814,-300.5 814,-294.5 820,-288.5 826,-288.5 826,-288.5 902,-288.5 902,-288.5 908,-288.5 914,-294.5 914,-300.5 914,-300.5 914,-317.5 914,-317.5 914,-323.5 908,-329.5 902,-329.5"/>
<text text-anchor="middle" x="864" y="-317.5" font-family="sans" font-size="10.00">createBatchNpz</text>
<text text-anchor="middle" x="864" y="-306.5" font-family="sans" font-size="10.00">batch: batch_100</text>
<text text-anchor="middle" x="864" y="-295.5" font-family="sans" font-size="10.00">simtype: neut</text>
</g>
<!-- 10&#45;&gt;2 -->
<g id="edge11" class="edge"><title>10&#45;&gt;2</title>
<path fill="none" stroke="grey" stroke-width="2" d="M914.262,-289.814C917.196,-289.112 920.122,-288.497 923,-288 1272.83,-227.552 3936.46,-233.638 4321.63,-234.841"/>
<polygon fill="grey" stroke="grey" points="4321.84,-238.342 4331.85,-234.874 4321.86,-231.342 4321.84,-238.342"/>
</g>
<!-- 11 -->
<g id="node12" class="node"><title>11</title>
<path fill="none" stroke="#88d856" stroke-width="2" stroke-dasharray="5,2" d="M1020,-329.5C1020,-329.5 944,-329.5 944,-329.5 938,-329.5 932,-323.5 932,-317.5 932,-317.5 932,-300.5 932,-300.5 932,-294.5 938,-288.5 944,-288.5 944,-288.5 1020,-288.5 1020,-288.5 1026,-288.5 1032,-294.5 1032,-300.5 1032,-300.5 1032,-317.5 1032,-317.5 1032,-323.5 1026,-329.5 1020,-329.5"/>
<text text-anchor="middle" x="982" y="-317.5" font-family="sans" font-size="10.00">createBatchNpz</text>
<text text-anchor="middle" x="982" y="-306.5" font-family="sans" font-size="10.00">batch: batch_460</text>
<text text-anchor="middle" x="982" y="-295.5" font-family="sans" font-size="10.00">simtype: neut</text>
</g>
<!-- 11&#45;&gt;2 -->
<g id="edge12" class="edge"><title>11&#45;&gt;2</title>
<path fill="none" stroke="grey" stroke-width="2" d="M1032.26,-289.816C1035.2,-289.113 1038.12,-288.498 1041,-288 1378.39,-229.606 3944.53,-233.914 4321.76,-234.869"/>
<polygon fill="grey" stroke="grey" points="4321.76,-238.369 4331.77,-234.895 4321.78,-231.369 4321.76,-238.369"/>
</g>
<!-- 12 -->
<g id="node13" class="node"><title>12</title>
<path fill="none" stroke="#88d856" stroke-width="2" stroke-dasharray="5,2" d="M1138,-329.5C1138,-329.5 1062,-329.5 1062,-329.5 1056,-329.5 1050,-323.5 1050,-317.5 1050,-317.5 1050,-300.5 1050,-300.5 1050,-294.5 1056,-288.5 1062,-288.5 1062,-288.5 1138,-288.5 1138,-288.5 1144,-288.5 1150,-294.5 1150,-300.5 1150,-300.5 1150,-317.5 1150,-317.5 1150,-323.5 1144,-329.5 1138,-329.5"/>
<text text-anchor="middle" x="1100" y="-317.5" font-family="sans" font-size="10.00">createBatchNpz</text>
<text text-anchor="middle" x="1100" y="-306.5" font-family="sans" font-size="10.00">batch: batch_120</text>
<text text-anchor="middle" x="1100" y="-295.5" font-family="sans" font-size="10.00">simtype: neut</text>
</g>
<!-- 12&#45;&gt;2 -->
<g id="edge13" class="edge"><title>12&#45;&gt;2</title>
<path fill="none" stroke="grey" stroke-width="2" d="M1150.26,-289.818C1153.2,-289.115 1156.12,-288.499 1159,-288 1483.91,-231.669 3951.87,-234.198 4321.69,-234.898"/>
<polygon fill="grey" stroke="grey" points="4321.76,-238.398 4331.77,-234.918 4321.77,-231.398 4321.76,-238.398"/>
</g>
<!-- 13 -->
<g id="node14" class="node"><title>13</title>
<path fill="none" stroke="#88d856" stroke-width="2" stroke-dasharray="5,2" d="M1256,-329.5C1256,-329.5 1180,-329.5 1180,-329.5 1174,-329.5 1168,-323.5 1168,-317.5 1168,-317.5 1168,-300.5 1168,-300.5 1168,-294.5 1174,-288.5 1180,-288.5 1180,-288.5 1256,-288.5 1256,-288.5 1262,-288.5 1268,-294.5 1268,-300.5 1268,-300.5 1268,-317.5 1268,-317.5 1268,-323.5 1262,-329.5 1256,-329.5"/>
<text text-anchor="middle" x="1218" y="-317.5" font-family="sans" font-size="10.00">createBatchNpz</text>
<text text-anchor="middle" x="1218" y="-306.5" font-family="sans" font-size="10.00">batch: batch_440</text>
<text text-anchor="middle" x="1218" y="-295.5" font-family="sans" font-size="10.00">simtype: neut</text>
</g>
<!-- 13&#45;&gt;2 -->
<g id="edge14" class="edge"><title>13&#45;&gt;2</title>
<path fill="none" stroke="grey" stroke-width="2" d="M1268.26,-289.82C1271.2,-289.117 1274.12,-288.5 1277,-288 1589.46,-233.725 3959.79,-234.492 4321.71,-234.93"/>
<polygon fill="grey" stroke="grey" points="4321.83,-238.43 4331.83,-234.942 4321.84,-231.43 4321.83,-238.43"/>
</g>
<!-- 14 -->
<g id="node15" class="node"><title>14</title>
<path fill="none" stroke="#88d856" stroke-width="2" stroke-dasharray="5,2" d="M1368,-329.5C1368,-329.5 1298,-329.5 1298,-329.5 1292,-329.5 1286,-323.5 1286,-317.5 1286,-317.5 1286,-300.5 1286,-300.5 1286,-294.5 1292,-288.5 1298,-288.5 1298,-288.5 1368,-288.5 1368,-288.5 1374,-288.5 1380,-294.5 1380,-300.5 1380,-300.5 1380,-317.5 1380,-317.5 1380,-323.5 1374,-329.5 1368,-329.5"/>
<text text-anchor="middle" x="1333" y="-317.5" font-family="sans" font-size="10.00">createBatchNpz</text>
<text text-anchor="middle" x="1333" y="-306.5" font-family="sans" font-size="10.00">batch: batch_20</text>
<text text-anchor="middle" x="1333" y="-295.5" font-family="sans" font-size="10.00">simtype: neut</text>
</g>
<!-- 14&#45;&gt;2 -->
<g id="edge15" class="edge"><title>14&#45;&gt;2</title>
<path fill="none" stroke="grey" stroke-width="2" d="M1380.06,-289.979C1383.06,-289.209 1386.05,-288.537 1389,-288 1689.22,-233.243 3967.41,-234.401 4321.74,-234.917"/>
<polygon fill="grey" stroke="grey" points="4321.89,-238.417 4331.9,-234.933 4321.9,-231.417 4321.89,-238.417"/>
</g>
<!-- 15 -->
<g id="node16" class="node"><title>15</title>
<path fill="none" stroke="#88d856" stroke-width="2" stroke-dasharray="5,2" d="M1486,-329.5C1486,-329.5 1410,-329.5 1410,-329.5 1404,-329.5 1398,-323.5 1398,-317.5 1398,-317.5 1398,-300.5 1398,-300.5 1398,-294.5 1404,-288.5 1410,-288.5 1410,-288.5 1486,-288.5 1486,-288.5 1492,-288.5 1498,-294.5 1498,-300.5 1498,-300.5 1498,-317.5 1498,-317.5 1498,-323.5 1492,-329.5 1486,-329.5"/>
<text text-anchor="middle" x="1448" y="-317.5" font-family="sans" font-size="10.00">createBatchNpz</text>
<text text-anchor="middle" x="1448" y="-306.5" font-family="sans" font-size="10.00">batch: batch_480</text>
<text text-anchor="middle" x="1448" y="-295.5" font-family="sans" font-size="10.00">simtype: neut</text>
</g>
<!-- 15&#45;&gt;2 -->
<g id="edge16" class="edge"><title>15&#45;&gt;2</title>
<path fill="none" stroke="grey" stroke-width="2" d="M1498.26,-289.825C1501.2,-289.12 1504.12,-288.502 1507,-288 1795.21,-237.733 3975.39,-235.099 4321.71,-234.998"/>
<polygon fill="grey" stroke="grey" points="4321.88,-238.498 4331.87,-234.996 4321.87,-231.498 4321.88,-238.498"/>
</g>
<!-- 16 -->
<g id="node17" class="node"><title>16</title>
<path fill="none" stroke="#88d856" stroke-width="2" stroke-dasharray="5,2" d="M1604,-329.5C1604,-329.5 1528,-329.5 1528,-329.5 1522,-329.5 1516,-323.5 1516,-317.5 1516,-317.5 1516,-300.5 1516,-300.5 1516,-294.5 1522,-288.5 1528,-288.5 1528,-288.5 1604,-288.5 1604,-288.5 1610,-288.5 1616,-294.5 1616,-300.5 1616,-300.5 1616,-317.5 1616,-317.5 1616,-323.5 1610,-329.5 1604,-329.5"/>
<text text-anchor="middle" x="1566" y="-317.5" font-family="sans" font-size="10.00">createBatchNpz</text>
<text text-anchor="middle" x="1566" y="-306.5" font-family="sans" font-size="10.00">batch: batch_180</text>
<text text-anchor="middle" x="1566" y="-295.5" font-family="sans" font-size="10.00">simtype: neut</text>
</g>
<!-- 16&#45;&gt;2 -->
<g id="edge17" class="edge"><title>16&#45;&gt;2</title>
<path fill="none" stroke="grey" stroke-width="2" d="M1616.26,-289.828C1619.2,-289.122 1622.12,-288.503 1625,-288 1900.8,-239.784 3983.97,-235.428 4321.78,-235.038"/>
<polygon fill="grey" stroke="grey" points="4321.94,-238.538 4331.94,-235.027 4321.94,-231.538 4321.94,-238.538"/>
</g>
<!-- 17 -->
<g id="node18" class="node"><title>17</title>
<path fill="none" stroke="#88d856" stroke-width="2" stroke-dasharray="5,2" d="M1722,-329.5C1722,-329.5 1646,-329.5 1646,-329.5 1640,-329.5 1634,-323.5 1634,-317.5 1634,-317.5 1634,-300.5 1634,-300.5 1634,-294.5 1640,-288.5 1646,-288.5 1646,-288.5 1722,-288.5 1722,-288.5 1728,-288.5 1734,-294.5 1734,-300.5 1734,-300.5 1734,-317.5 1734,-317.5 1734,-323.5 1728,-329.5 1722,-329.5"/>
<text text-anchor="middle" x="1684" y="-317.5" font-family="sans" font-size="10.00">createBatchNpz</text>
<text text-anchor="middle" x="1684" y="-306.5" font-family="sans" font-size="10.00">batch: batch_220</text>
<text text-anchor="middle" x="1684" y="-295.5" font-family="sans" font-size="10.00">simtype: neut</text>
</g>
<!-- 17&#45;&gt;2 -->
<g id="edge18" class="edge"><title>17&#45;&gt;2</title>
<path fill="none" stroke="grey" stroke-width="2" d="M1734.26,-289.831C1737.2,-289.124 1740.12,-288.504 1743,-288 2006.3,-241.851 3991.12,-235.776 4321.46,-235.082"/>
<polygon fill="grey" stroke="grey" points="4321.64,-238.582 4331.64,-235.061 4321.63,-231.582 4321.64,-238.582"/>
</g>
<!-- 18 -->
<g id="node19" class="node"><title>18</title>
<path fill="none" stroke="#88d856" stroke-width="2" stroke-dasharray="5,2" d="M1840,-329.5C1840,-329.5 1764,-329.5 1764,-329.5 1758,-329.5 1752,-323.5 1752,-317.5 1752,-317.5 1752,-300.5 1752,-300.5 1752,-294.5 1758,-288.5 1764,-288.5 1764,-288.5 1840,-288.5 1840,-288.5 1846,-288.5 1852,-294.5 1852,-300.5 1852,-300.5 1852,-317.5 1852,-317.5 1852,-323.5 1846,-329.5 1840,-329.5"/>
<text text-anchor="middle" x="1802" y="-317.5" font-family="sans" font-size="10.00">createBatchNpz</text>
<text text-anchor="middle" x="1802" y="-306.5" font-family="sans" font-size="10.00">batch: batch_140</text>
<text text-anchor="middle" x="1802" y="-295.5" font-family="sans" font-size="10.00">simtype: neut</text>
</g>
<!-- 18&#45;&gt;2 -->
<g id="edge19" class="edge"><title>18&#45;&gt;2</title>
<path fill="none" stroke="grey" stroke-width="2" d="M1852.27,-289.834C1855.2,-289.127 1858.12,-288.506 1861,-288 2111.93,-243.897 4000.21,-236.135 4321.57,-235.129"/>
<polygon fill="grey" stroke="grey" points="4321.92,-238.628 4331.91,-235.097 4321.9,-231.628 4321.92,-238.628"/>
</g>
<!-- 19 -->
<g id="node20" class="node"><title>19</title>
<path fill="none" stroke="#88d856" stroke-width="2" stroke-dasharray="5,2" d="M1958,-329.5C1958,-329.5 1882,-329.5 1882,-329.5 1876,-329.5 1870,-323.5 1870,-317.5 1870,-317.5 1870,-300.5 1870,-300.5 1870,-294.5 1876,-288.5 1882,-288.5 1882,-288.5 1958,-288.5 1958,-288.5 1964,-288.5 1970,-294.5 1970,-300.5 1970,-300.5 1970,-317.5 1970,-317.5 1970,-323.5 1964,-329.5 1958,-329.5"/>
<text text-anchor="middle" x="1920" y="-317.5" font-family="sans" font-size="10.00">createBatchNpz</text>
<text text-anchor="middle" x="1920" y="-306.5" font-family="sans" font-size="10.00">batch: batch_280</text>
<text text-anchor="middle" x="1920" y="-295.5" font-family="sans" font-size="10.00">simtype: neut</text>
</g>
<!-- 19&#45;&gt;2 -->
<g id="edge20" class="edge"><title>19&#45;&gt;2</title>
<path fill="none" stroke="grey" stroke-width="2" d="M1970.27,-289.838C1973.2,-289.13 1976.12,-288.507 1979,-288 2217.59,-245.936 4009.92,-236.508 4321.8,-235.18"/>
<polygon fill="grey" stroke="grey" points="4321.86,-238.68 4331.85,-235.138 4321.83,-231.68 4321.86,-238.68"/>
</g>
<!-- 20 -->
<g id="node21" class="node"><title>20</title>
<path fill="none" stroke="#88d856" stroke-width="2" stroke-dasharray="5,2" d="M2076,-329.5C2076,-329.5 2000,-329.5 2000,-329.5 1994,-329.5 1988,-323.5 1988,-317.5 1988,-317.5 1988,-300.5 1988,-300.5 1988,-294.5 1994,-288.5 2000,-288.5 2000,-288.5 2076,-288.5 2076,-288.5 2082,-288.5 2088,-294.5 2088,-300.5 2088,-300.5 2088,-317.5 2088,-317.5 2088,-323.5 2082,-329.5 2076,-329.5"/>
<text text-anchor="middle" x="2038" y="-317.5" font-family="sans" font-size="10.00">createBatchNpz</text>
<text text-anchor="middle" x="2038" y="-306.5" font-family="sans" font-size="10.00">batch: batch_420</text>
<text text-anchor="middle" x="2038" y="-295.5" font-family="sans" font-size="10.00">simtype: neut</text>
</g>
<!-- 20&#45;&gt;2 -->
<g id="edge21" class="edge"><title>20&#45;&gt;2</title>
<path fill="none" stroke="grey" stroke-width="2" d="M2088.27,-289.842C2091.2,-289.133 2094.12,-288.509 2097,-288 2323.2,-247.987 4018.72,-236.907 4321.73,-235.238"/>
<polygon fill="grey" stroke="grey" points="4321.93,-238.737 4331.92,-235.182 4321.9,-231.737 4321.93,-238.737"/>
</g>
<!-- 21 -->
<g id="node22" class="node"><title>21</title>
<path fill="none" stroke="#88d856" stroke-width="2" stroke-dasharray="5,2" d="M2194,-329.5C2194,-329.5 2118,-329.5 2118,-329.5 2112,-329.5 2106,-323.5 2106,-317.5 2106,-317.5 2106,-300.5 2106,-300.5 2106,-294.5 2112,-288.5 2118,-288.5 2118,-288.5 2194,-288.5 2194,-288.5 2200,-288.5 2206,-294.5 2206,-300.5 2206,-300.5 2206,-317.5 2206,-317.5 2206,-323.5 2200,-329.5 2194,-329.5"/>
<text text-anchor="middle" x="2156" y="-317.5" font-family="sans" font-size="10.00">createBatchNpz</text>
<text text-anchor="middle" x="2156" y="-306.5" font-family="sans" font-size="10.00">batch: batch_360</text>
<text text-anchor="middle" x="2156" y="-295.5" font-family="sans" font-size="10.00">simtype: neut</text>
</g>
<!-- 21&#45;&gt;2 -->
<g id="edge22" class="edge"><title>21&#45;&gt;2</title>
<path fill="none" stroke="grey" stroke-width="2" d="M2206.27,-289.846C2209.2,-289.136 2212.12,-288.51 2215,-288 2428.76,-250.048 4026.78,-237.335 4321.38,-235.304"/>
<polygon fill="grey" stroke="grey" points="4321.73,-238.802 4331.7,-235.233 4321.68,-231.802 4321.73,-238.802"/>
</g>
<!-- 22 -->
<g id="node23" class="node"><title>22</title>
<path fill="none" stroke="#88d856" stroke-width="2" stroke-dasharray="5,2" d="M2306,-329.5C2306,-329.5 2236,-329.5 2236,-329.5 2230,-329.5 2224,-323.5 2224,-317.5 2224,-317.5 2224,-300.5 2224,-300.5 2224,-294.5 2230,-288.5 2236,-288.5 2236,-288.5 2306,-288.5 2306,-288.5 2312,-288.5 2318,-294.5 2318,-300.5 2318,-300.5 2318,-317.5 2318,-317.5 2318,-323.5 2312,-329.5 2306,-329.5"/>
<text text-anchor="middle" x="2271" y="-317.5" font-family="sans" font-size="10.00">createBatchNpz</text>
<text text-anchor="middle" x="2271" y="-306.5" font-family="sans" font-size="10.00">batch: batch_40</text>
<text text-anchor="middle" x="2271" y="-295.5" font-family="sans" font-size="10.00">simtype: neut</text>
</g>
<!-- 22&#45;&gt;2 -->
<g id="edge23" class="edge"><title>22&#45;&gt;2</title>
<path fill="none" stroke="grey" stroke-width="2" d="M2318.06,-290.007C2321.06,-289.231 2324.06,-288.549 2327,-288 2528.79,-250.343 4036.54,-237.44 4321.58,-235.325"/>
<polygon fill="grey" stroke="grey" points="4321.99,-238.822 4331.96,-235.249 4321.94,-231.823 4321.99,-238.822"/>
</g>
<!-- 23 -->
<g id="node24" class="node"><title>23</title>
<path fill="none" stroke="#88d856" stroke-width="2" stroke-dasharray="5,2" d="M2424,-329.5C2424,-329.5 2348,-329.5 2348,-329.5 2342,-329.5 2336,-323.5 2336,-317.5 2336,-317.5 2336,-300.5 2336,-300.5 2336,-294.5 2342,-288.5 2348,-288.5 2348,-288.5 2424,-288.5 2424,-288.5 2430,-288.5 2436,-294.5 2436,-300.5 2436,-300.5 2436,-317.5 2436,-317.5 2436,-323.5 2430,-329.5 2424,-329.5"/>
<text text-anchor="middle" x="2386" y="-317.5" font-family="sans" font-size="10.00">createBatchNpz</text>
<text text-anchor="middle" x="2386" y="-306.5" font-family="sans" font-size="10.00">batch: batch_260</text>
<text text-anchor="middle" x="2386" y="-295.5" font-family="sans" font-size="10.00">simtype: neut</text>
</g>
<!-- 23&#45;&gt;2 -->
<g id="edge24" class="edge"><title>23&#45;&gt;2</title>
<path fill="none" stroke="grey" stroke-width="2" d="M2436.27,-289.856C2439.2,-289.143 2442.13,-288.515 2445,-288 2634.78,-254.017 4046.68,-238.219 4321.66,-235.448"/>
<polygon fill="grey" stroke="grey" points="4321.73,-238.948 4331.7,-235.348 4321.66,-231.948 4321.73,-238.948"/>
</g>
<!-- 24 -->
<g id="node25" class="node"><title>24</title>
<path fill="none" stroke="#88d856" stroke-width="2" stroke-dasharray="5,2" d="M2536,-329.5C2536,-329.5 2466,-329.5 2466,-329.5 2460,-329.5 2454,-323.5 2454,-317.5 2454,-317.5 2454,-300.5 2454,-300.5 2454,-294.5 2460,-288.5 2466,-288.5 2466,-288.5 2536,-288.5 2536,-288.5 2542,-288.5 2548,-294.5 2548,-300.5 2548,-300.5 2548,-317.5 2548,-317.5 2548,-323.5 2542,-329.5 2536,-329.5"/>
<text text-anchor="middle" x="2501" y="-317.5" font-family="sans" font-size="10.00">createBatchNpz</text>
<text text-anchor="middle" x="2501" y="-306.5" font-family="sans" font-size="10.00">batch: batch_0</text>
<text text-anchor="middle" x="2501" y="-295.5" font-family="sans" font-size="10.00">simtype: neut</text>
</g>
<!-- 24&#45;&gt;2 -->
<g id="edge25" class="edge"><title>24&#45;&gt;2</title>
<path fill="none" stroke="grey" stroke-width="2" d="M2548.07,-290.019C2551.06,-289.239 2554.06,-288.554 2557,-288 2734.87,-254.503 4056.93,-238.395 4321.86,-235.487"/>
<polygon fill="grey" stroke="grey" points="4321.94,-238.986 4331.91,-235.377 4321.87,-231.986 4321.94,-238.986"/>
</g>
<!-- 25 -->
<g id="node26" class="node"><title>25</title>
<path fill="none" stroke="#88d856" stroke-width="2" stroke-dasharray="5,2" d="M2654,-329.5C2654,-329.5 2578,-329.5 2578,-329.5 2572,-329.5 2566,-323.5 2566,-317.5 2566,-317.5 2566,-300.5 2566,-300.5 2566,-294.5 2572,-288.5 2578,-288.5 2578,-288.5 2654,-288.5 2654,-288.5 2660,-288.5 2666,-294.5 2666,-300.5 2666,-300.5 2666,-317.5 2666,-317.5 2666,-323.5 2660,-329.5 2654,-329.5"/>
<text text-anchor="middle" x="2616" y="-317.5" font-family="sans" font-size="10.00">createBatchNpz</text>
<text text-anchor="middle" x="2616" y="-306.5" font-family="sans" font-size="10.00">batch: batch_320</text>
<text text-anchor="middle" x="2616" y="-295.5" font-family="sans" font-size="10.00">simtype: neut</text>
</g>
<!-- 25&#45;&gt;2 -->
<g id="edge26" class="edge"><title>25&#45;&gt;2</title>
<path fill="none" stroke="grey" stroke-width="2" d="M2666.27,-289.869C2669.2,-289.153 2672.13,-288.52 2675,-288 2840.81,-257.989 4066.78,-239.233 4321.67,-235.634"/>
<polygon fill="grey" stroke="grey" points="4321.75,-239.134 4331.7,-235.493 4321.65,-232.134 4321.75,-239.134"/>
</g>
<!-- 26 -->
<g id="node27" class="node"><title>26</title>
<path fill="none" stroke="#88d856" stroke-width="2" stroke-dasharray="5,2" d="M2772,-329.5C2772,-329.5 2696,-329.5 2696,-329.5 2690,-329.5 2684,-323.5 2684,-317.5 2684,-317.5 2684,-300.5 2684,-300.5 2684,-294.5 2690,-288.5 2696,-288.5 2696,-288.5 2772,-288.5 2772,-288.5 2778,-288.5 2784,-294.5 2784,-300.5 2784,-300.5 2784,-317.5 2784,-317.5 2784,-323.5 2778,-329.5 2772,-329.5"/>
<text text-anchor="middle" x="2734" y="-317.5" font-family="sans" font-size="10.00">createBatchNpz</text>
<text text-anchor="middle" x="2734" y="-306.5" font-family="sans" font-size="10.00">batch: batch_400</text>
<text text-anchor="middle" x="2734" y="-295.5" font-family="sans" font-size="10.00">simtype: neut</text>
</g>
<!-- 26&#45;&gt;2 -->
<g id="edge27" class="edge"><title>26&#45;&gt;2</title>
<path fill="none" stroke="grey" stroke-width="2" d="M2784.27,-289.877C2787.2,-289.159 2790.13,-288.523 2793,-288 3097.53,-232.511 4094.27,-233.708 4321.57,-234.734"/>
<polygon fill="grey" stroke="grey" points="4321.79,-238.235 4331.81,-234.782 4321.82,-231.235 4321.79,-238.235"/>
</g>
<!-- 27 -->
<g id="node28" class="node"><title>27</title>
<path fill="none" stroke="#88d856" stroke-width="2" stroke-dasharray="5,2" d="M2890,-329.5C2890,-329.5 2814,-329.5 2814,-329.5 2808,-329.5 2802,-323.5 2802,-317.5 2802,-317.5 2802,-300.5 2802,-300.5 2802,-294.5 2808,-288.5 2814,-288.5 2814,-288.5 2890,-288.5 2890,-288.5 2896,-288.5 2902,-294.5 2902,-300.5 2902,-300.5 2902,-317.5 2902,-317.5 2902,-323.5 2896,-329.5 2890,-329.5"/>
<text text-anchor="middle" x="2852" y="-317.5" font-family="sans" font-size="10.00">createBatchNpz</text>
<text text-anchor="middle" x="2852" y="-306.5" font-family="sans" font-size="10.00">batch: batch_200</text>
<text text-anchor="middle" x="2852" y="-295.5" font-family="sans" font-size="10.00">simtype: neut</text>
</g>
<!-- 27&#45;&gt;2 -->
<g id="edge28" class="edge"><title>27&#45;&gt;2</title>
<path fill="none" stroke="grey" stroke-width="2" d="M2902.27,-289.886C2905.21,-289.166 2908.13,-288.527 2911,-288 3191.31,-236.531 4105.85,-234.601 4321.94,-234.882"/>
<polygon fill="grey" stroke="grey" points="4321.98,-238.382 4331.99,-234.897 4321.99,-231.382 4321.98,-238.382"/>
</g>
<!-- 28 -->
<g id="node29" class="node"><title>28</title>
<path fill="none" stroke="#88d856" stroke-width="2" stroke-dasharray="5,2" d="M3008,-329.5C3008,-329.5 2932,-329.5 2932,-329.5 2926,-329.5 2920,-323.5 2920,-317.5 2920,-317.5 2920,-300.5 2920,-300.5 2920,-294.5 2926,-288.5 2932,-288.5 2932,-288.5 3008,-288.5 3008,-288.5 3014,-288.5 3020,-294.5 3020,-300.5 3020,-300.5 3020,-317.5 3020,-317.5 3020,-323.5 3014,-329.5 3008,-329.5"/>
<text text-anchor="middle" x="2970" y="-317.5" font-family="sans" font-size="10.00">createBatchNpz</text>
<text text-anchor="middle" x="2970" y="-306.5" font-family="sans" font-size="10.00">batch: batch_380</text>
<text text-anchor="middle" x="2970" y="-295.5" font-family="sans" font-size="10.00">simtype: hard</text>
</g>
<!-- 28&#45;&gt;2 -->
<g id="edge29" class="edge"><title>28&#45;&gt;2</title>
<path fill="none" stroke="grey" stroke-width="2" d="M3020.28,-289.898C3023.21,-289.174 3026.13,-288.532 3029,-288 3284.9,-240.589 4116.25,-235.567 4321.75,-235.054"/>
<polygon fill="grey" stroke="grey" points="4321.9,-238.554 4331.89,-235.031 4321.88,-231.554 4321.9,-238.554"/>
</g>
<!-- 29 -->
<g id="node30" class="node"><title>29</title>
<path fill="none" stroke="#88d856" stroke-width="2" stroke-dasharray="5,2" d="M3126,-329.5C3126,-329.5 3050,-329.5 3050,-329.5 3044,-329.5 3038,-323.5 3038,-317.5 3038,-317.5 3038,-300.5 3038,-300.5 3038,-294.5 3044,-288.5 3050,-288.5 3050,-288.5 3126,-288.5 3126,-288.5 3132,-288.5 3138,-294.5 3138,-300.5 3138,-300.5 3138,-317.5 3138,-317.5 3138,-323.5 3132,-329.5 3126,-329.5"/>
<text text-anchor="middle" x="3088" y="-317.5" font-family="sans" font-size="10.00">createBatchNpz</text>
<text text-anchor="middle" x="3088" y="-306.5" font-family="sans" font-size="10.00">batch: batch_240</text>
<text text-anchor="middle" x="3088" y="-295.5" font-family="sans" font-size="10.00">simtype: hard</text>
</g>
<!-- 29&#45;&gt;2 -->
<g id="edge30" class="edge"><title>29&#45;&gt;2</title>
<path fill="none" stroke="grey" stroke-width="2" d="M3138.28,-289.911C3141.21,-289.184 3144.13,-288.537 3147,-288 3378.66,-244.622 4127.8,-236.618 4321.79,-235.26"/>
<polygon fill="grey" stroke="grey" points="4321.95,-238.759 4331.92,-235.191 4321.9,-231.759 4321.95,-238.759"/>
</g>
<!-- 30 -->
<g id="node31" class="node"><title>30</title>
<path fill="none" stroke="#88d856" stroke-width="2" stroke-dasharray="5,2" d="M3244,-329.5C3244,-329.5 3168,-329.5 3168,-329.5 3162,-329.5 3156,-323.5 3156,-317.5 3156,-317.5 3156,-300.5 3156,-300.5 3156,-294.5 3162,-288.5 3168,-288.5 3168,-288.5 3244,-288.5 3244,-288.5 3250,-288.5 3256,-294.5 3256,-300.5 3256,-300.5 3256,-317.5 3256,-317.5 3256,-323.5 3250,-329.5 3244,-329.5"/>
<text text-anchor="middle" x="3206" y="-317.5" font-family="sans" font-size="10.00">createBatchNpz</text>
<text text-anchor="middle" x="3206" y="-306.5" font-family="sans" font-size="10.00">batch: batch_300</text>
<text text-anchor="middle" x="3206" y="-295.5" font-family="sans" font-size="10.00">simtype: hard</text>
</g>
<!-- 30&#45;&gt;2 -->
<g id="edge31" class="edge"><title>30&#45;&gt;2</title>
<path fill="none" stroke="grey" stroke-width="2" d="M3256.28,-289.927C3259.21,-289.196 3262.13,-288.544 3265,-288 3472.52,-248.645 4139.97,-237.773 4321.85,-235.508"/>
<polygon fill="grey" stroke="grey" points="4321.93,-239.007 4331.89,-235.385 4321.85,-232.008 4321.93,-239.007"/>
</g>
<!-- 31 -->
<g id="node32" class="node"><title>31</title>
<path fill="none" stroke="#88d856" stroke-width="2" stroke-dasharray="5,2" d="M3356,-329.5C3356,-329.5 3286,-329.5 3286,-329.5 3280,-329.5 3274,-323.5 3274,-317.5 3274,-317.5 3274,-300.5 3274,-300.5 3274,-294.5 3280,-288.5 3286,-288.5 3286,-288.5 3356,-288.5 3356,-288.5 3362,-288.5 3368,-294.5 3368,-300.5 3368,-300.5 3368,-317.5 3368,-317.5 3368,-323.5 3362,-329.5 3356,-329.5"/>
<text text-anchor="middle" x="3321" y="-317.5" font-family="sans" font-size="10.00">createBatchNpz</text>
<text text-anchor="middle" x="3321" y="-306.5" font-family="sans" font-size="10.00">batch: batch_80</text>
<text text-anchor="middle" x="3321" y="-295.5" font-family="sans" font-size="10.00">simtype: hard</text>
</g>
<!-- 31&#45;&gt;2 -->
<g id="edge32" class="edge"><title>31&#45;&gt;2</title>
<path fill="none" stroke="grey" stroke-width="2" d="M3368.08,-290.103C3371.08,-289.302 3374.06,-288.59 3377,-288 3561.38,-250.964 4151.94,-238.552 4321.86,-235.7"/>
<polygon fill="grey" stroke="grey" points="4322.03,-239.198 4331.97,-235.533 4321.92,-232.199 4322.03,-239.198"/>
</g>
<!-- 32 -->
<g id="node33" class="node"><title>32</title>
<path fill="none" stroke="#88d856" stroke-width="2" stroke-dasharray="5,2" d="M3468,-329.5C3468,-329.5 3398,-329.5 3398,-329.5 3392,-329.5 3386,-323.5 3386,-317.5 3386,-317.5 3386,-300.5 3386,-300.5 3386,-294.5 3392,-288.5 3398,-288.5 3398,-288.5 3468,-288.5 3468,-288.5 3474,-288.5 3480,-294.5 3480,-300.5 3480,-300.5 3480,-317.5 3480,-317.5 3480,-323.5 3474,-329.5 3468,-329.5"/>
<text text-anchor="middle" x="3433" y="-317.5" font-family="sans" font-size="10.00">createBatchNpz</text>
<text text-anchor="middle" x="3433" y="-306.5" font-family="sans" font-size="10.00">batch: batch_60</text>
<text text-anchor="middle" x="3433" y="-295.5" font-family="sans" font-size="10.00">simtype: hard</text>
</g>
<!-- 32&#45;&gt;2 -->
<g id="edge33" class="edge"><title>32&#45;&gt;2</title>
<path fill="none" stroke="grey" stroke-width="2" d="M3480.09,-290.126C3483.08,-289.32 3486.07,-288.6 3489,-288 3650.61,-254.967 4164.33,-239.965 4321.72,-236.067"/>
<polygon fill="grey" stroke="grey" points="4322.08,-239.559 4332,-235.816 4321.91,-232.561 4322.08,-239.559"/>
</g>
<!-- 33 -->
<g id="node34" class="node"><title>33</title>
<path fill="none" stroke="#88d856" stroke-width="2" stroke-dasharray="5,2" d="M3586,-329.5C3586,-329.5 3510,-329.5 3510,-329.5 3504,-329.5 3498,-323.5 3498,-317.5 3498,-317.5 3498,-300.5 3498,-300.5 3498,-294.5 3504,-288.5 3510,-288.5 3510,-288.5 3586,-288.5 3586,-288.5 3592,-288.5 3598,-294.5 3598,-300.5 3598,-300.5 3598,-317.5 3598,-317.5 3598,-323.5 3592,-329.5 3586,-329.5"/>
<text text-anchor="middle" x="3548" y="-317.5" font-family="sans" font-size="10.00">createBatchNpz</text>
<text text-anchor="middle" x="3548" y="-306.5" font-family="sans" font-size="10.00">batch: batch_340</text>
<text text-anchor="middle" x="3548" y="-295.5" font-family="sans" font-size="10.00">simtype: hard</text>
</g>
<!-- 33&#45;&gt;2 -->
<g id="edge34" class="edge"><title>33&#45;&gt;2</title>
<path fill="none" stroke="grey" stroke-width="2" d="M3598.3,-290.001C3601.22,-289.251 3604.14,-288.575 3607,-288 3744.92,-260.304 4177.97,-242.077 4321.37,-236.676"/>
<polygon fill="grey" stroke="grey" points="4321.72,-240.166 4331.58,-236.295 4321.45,-233.17 4321.72,-240.166"/>
</g>
<!-- 34 -->
<g id="node35" class="node"><title>34</title>
<path fill="none" stroke="#88d856" stroke-width="2" stroke-dasharray="5,2" d="M3704,-329.5C3704,-329.5 3628,-329.5 3628,-329.5 3622,-329.5 3616,-323.5 3616,-317.5 3616,-317.5 3616,-300.5 3616,-300.5 3616,-294.5 3622,-288.5 3628,-288.5 3628,-288.5 3704,-288.5 3704,-288.5 3710,-288.5 3716,-294.5 3716,-300.5 3716,-300.5 3716,-317.5 3716,-317.5 3716,-323.5 3710,-329.5 3704,-329.5"/>
<text text-anchor="middle" x="3666" y="-317.5" font-family="sans" font-size="10.00">createBatchNpz</text>
<text text-anchor="middle" x="3666" y="-306.5" font-family="sans" font-size="10.00">batch: batch_160</text>
<text text-anchor="middle" x="3666" y="-295.5" font-family="sans" font-size="10.00">simtype: hard</text>
</g>
<!-- 34&#45;&gt;2 -->
<g id="edge35" class="edge"><title>34&#45;&gt;2</title>
<path fill="none" stroke="grey" stroke-width="2" d="M3716.31,-290.044C3719.23,-289.284 3722.14,-288.593 3725,-288 3944.98,-242.369 4214.96,-235.706 4321.56,-234.96"/>
<polygon fill="grey" stroke="grey" points="4321.68,-238.46 4331.66,-234.904 4321.64,-231.46 4321.68,-238.46"/>
</g>
<!-- 35 -->
<g id="node36" class="node"><title>35</title>
<path fill="none" stroke="#88d856" stroke-width="2" stroke-dasharray="5,2" d="M3822,-329.5C3822,-329.5 3746,-329.5 3746,-329.5 3740,-329.5 3734,-323.5 3734,-317.5 3734,-317.5 3734,-300.5 3734,-300.5 3734,-294.5 3740,-288.5 3746,-288.5 3746,-288.5 3822,-288.5 3822,-288.5 3828,-288.5 3834,-294.5 3834,-300.5 3834,-300.5 3834,-317.5 3834,-317.5 3834,-323.5 3828,-329.5 3822,-329.5"/>
<text text-anchor="middle" x="3784" y="-317.5" font-family="sans" font-size="10.00">createBatchNpz</text>
<text text-anchor="middle" x="3784" y="-306.5" font-family="sans" font-size="10.00">batch: batch_100</text>
<text text-anchor="middle" x="3784" y="-295.5" font-family="sans" font-size="10.00">simtype: hard</text>
</g>
<!-- 35&#45;&gt;2 -->
<g id="edge36" class="edge"><title>35&#45;&gt;2</title>
<path fill="none" stroke="grey" stroke-width="2" d="M3834.32,-290.107C3837.24,-289.331 3840.15,-288.619 3843,-288 4017.13,-250.208 4229.72,-239.248 4321.81,-236.163"/>
<polygon fill="grey" stroke="grey" points="4322.03,-239.658 4331.92,-235.841 4321.81,-232.662 4322.03,-239.658"/>
</g>
<!-- 36 -->
<g id="node37" class="node"><title>36</title>
<path fill="none" stroke="#88d856" stroke-width="2" stroke-dasharray="5,2" d="M3940,-329.5C3940,-329.5 3864,-329.5 3864,-329.5 3858,-329.5 3852,-323.5 3852,-317.5 3852,-317.5 3852,-300.5 3852,-300.5 3852,-294.5 3858,-288.5 3864,-288.5 3864,-288.5 3940,-288.5 3940,-288.5 3946,-288.5 3952,-294.5 3952,-300.5 3952,-300.5 3952,-317.5 3952,-317.5 3952,-323.5 3946,-329.5 3940,-329.5"/>
<text text-anchor="middle" x="3902" y="-317.5" font-family="sans" font-size="10.00">createBatchNpz</text>
<text text-anchor="middle" x="3902" y="-306.5" font-family="sans" font-size="10.00">batch: batch_460</text>
<text text-anchor="middle" x="3902" y="-295.5" font-family="sans" font-size="10.00">simtype: hard</text>
</g>
<!-- 36&#45;&gt;2 -->
<g id="edge37" class="edge"><title>36&#45;&gt;2</title>
<path fill="none" stroke="grey" stroke-width="2" d="M3952.02,-290.295C3955.04,-289.459 3958.05,-288.685 3961,-288 4089.77,-258.099 4245.65,-243.701 4321.72,-238.04"/>
<polygon fill="grey" stroke="grey" points="4322.2,-241.515 4331.92,-237.299 4321.69,-234.534 4322.2,-241.515"/>
</g>
<!-- 37 -->
<g id="node38" class="node"><title>37</title>
<path fill="none" stroke="#88d856" stroke-width="2" stroke-dasharray="5,2" d="M4058,-329.5C4058,-329.5 3982,-329.5 3982,-329.5 3976,-329.5 3970,-323.5 3970,-317.5 3970,-317.5 3970,-300.5 3970,-300.5 3970,-294.5 3976,-288.5 3982,-288.5 3982,-288.5 4058,-288.5 4058,-288.5 4064,-288.5 4070,-294.5 4070,-300.5 4070,-300.5 4070,-317.5 4070,-317.5 4070,-323.5 4064,-329.5 4058,-329.5"/>
<text text-anchor="middle" x="4020" y="-317.5" font-family="sans" font-size="10.00">createBatchNpz</text>
<text text-anchor="middle" x="4020" y="-306.5" font-family="sans" font-size="10.00">batch: batch_120</text>
<text text-anchor="middle" x="4020" y="-295.5" font-family="sans" font-size="10.00">simtype: hard</text>
</g>
<!-- 37&#45;&gt;2 -->
<g id="edge38" class="edge"><title>37&#45;&gt;2</title>
<path fill="none" stroke="grey" stroke-width="2" d="M4070.06,-290.477C4073.07,-289.595 4076.07,-288.761 4079,-288 4163.36,-266.09 4263.85,-249.817 4321.36,-241.417"/>
<polygon fill="grey" stroke="grey" points="4322.19,-244.834 4331.59,-239.94 4321.19,-237.905 4322.19,-244.834"/>
</g>
<!-- 38 -->
<g id="node39" class="node"><title>38</title>
<path fill="none" stroke="#88d856" stroke-width="2" stroke-dasharray="5,2" d="M4176,-329.5C4176,-329.5 4100,-329.5 4100,-329.5 4094,-329.5 4088,-323.5 4088,-317.5 4088,-317.5 4088,-300.5 4088,-300.5 4088,-294.5 4094,-288.5 4100,-288.5 4100,-288.5 4176,-288.5 4176,-288.5 4182,-288.5 4188,-294.5 4188,-300.5 4188,-300.5 4188,-317.5 4188,-317.5 4188,-323.5 4182,-329.5 4176,-329.5"/>
<text text-anchor="middle" x="4138" y="-317.5" font-family="sans" font-size="10.00">createBatchNpz</text>
<text text-anchor="middle" x="4138" y="-306.5" font-family="sans" font-size="10.00">batch: batch_440</text>
<text text-anchor="middle" x="4138" y="-295.5" font-family="sans" font-size="10.00">simtype: hard</text>
</g>
<!-- 38&#45;&gt;2 -->
<g id="edge39" class="edge"><title>38&#45;&gt;2</title>
<path fill="none" stroke="grey" stroke-width="2" d="M4188.18,-290.889C4191.16,-289.904 4194.12,-288.934 4197,-288 4239.25,-274.296 4287.61,-259.377 4322.1,-248.87"/>
<polygon fill="grey" stroke="grey" points="4323.34,-252.151 4331.88,-245.893 4321.3,-245.454 4323.34,-252.151"/>
</g>
<!-- 39 -->
<g id="node40" class="node"><title>39</title>
<path fill="none" stroke="#88d856" stroke-width="2" stroke-dasharray="5,2" d="M4288,-329.5C4288,-329.5 4218,-329.5 4218,-329.5 4212,-329.5 4206,-323.5 4206,-317.5 4206,-317.5 4206,-300.5 4206,-300.5 4206,-294.5 4212,-288.5 4218,-288.5 4218,-288.5 4288,-288.5 4288,-288.5 4294,-288.5 4300,-294.5 4300,-300.5 4300,-300.5 4300,-317.5 4300,-317.5 4300,-323.5 4294,-329.5 4288,-329.5"/>
<text text-anchor="middle" x="4253" y="-317.5" font-family="sans" font-size="10.00">createBatchNpz</text>
<text text-anchor="middle" x="4253" y="-306.5" font-family="sans" font-size="10.00">batch: batch_20</text>
<text text-anchor="middle" x="4253" y="-295.5" font-family="sans" font-size="10.00">simtype: hard</text>
</g>
<!-- 39&#45;&gt;2 -->
<g id="edge40" class="edge"><title>39&#45;&gt;2</title>
<path fill="none" stroke="grey" stroke-width="2" d="M4283.82,-288.437C4298.72,-278.976 4316.7,-267.563 4332.21,-257.718"/>
<polygon fill="grey" stroke="grey" points="4334.45,-260.444 4341.01,-252.13 4330.7,-254.534 4334.45,-260.444"/>
</g>
<!-- 40 -->
<g id="node41" class="node"><title>40</title>
<path fill="none" stroke="#88d856" stroke-width="2" stroke-dasharray="5,2" d="M4406,-329.5C4406,-329.5 4330,-329.5 4330,-329.5 4324,-329.5 4318,-323.5 4318,-317.5 4318,-317.5 4318,-300.5 4318,-300.5 4318,-294.5 4324,-288.5 4330,-288.5 4330,-288.5 4406,-288.5 4406,-288.5 4412,-288.5 4418,-294.5 4418,-300.5 4418,-300.5 4418,-317.5 4418,-317.5 4418,-323.5 4412,-329.5 4406,-329.5"/>
<text text-anchor="middle" x="4368" y="-317.5" font-family="sans" font-size="10.00">createBatchNpz</text>
<text text-anchor="middle" x="4368" y="-306.5" font-family="sans" font-size="10.00">batch: batch_480</text>
<text text-anchor="middle" x="4368" y="-295.5" font-family="sans" font-size="10.00">simtype: hard</text>
</g>
<!-- 40&#45;&gt;2 -->
<g id="edge41" class="edge"><title>40&#45;&gt;2</title>
<path fill="none" stroke="grey" stroke-width="2" d="M4368,-288.437C4368,-280.391 4368,-270.933 4368,-262.228"/>
<polygon fill="grey" stroke="grey" points="4371.5,-262.13 4368,-252.13 4364.5,-262.13 4371.5,-262.13"/>
</g>
<!-- 41 -->
<g id="node42" class="node"><title>41</title>
<path fill="none" stroke="#88d856" stroke-width="2" stroke-dasharray="5,2" d="M4524,-329.5C4524,-329.5 4448,-329.5 4448,-329.5 4442,-329.5 4436,-323.5 4436,-317.5 4436,-317.5 4436,-300.5 4436,-300.5 4436,-294.5 4442,-288.5 4448,-288.5 4448,-288.5 4524,-288.5 4524,-288.5 4530,-288.5 4536,-294.5 4536,-300.5 4536,-300.5 4536,-317.5 4536,-317.5 4536,-323.5 4530,-329.5 4524,-329.5"/>
<text text-anchor="middle" x="4486" y="-317.5" font-family="sans" font-size="10.00">createBatchNpz</text>
<text text-anchor="middle" x="4486" y="-306.5" font-family="sans" font-size="10.00">batch: batch_180</text>
<text text-anchor="middle" x="4486" y="-295.5" font-family="sans" font-size="10.00">simtype: hard</text>
</g>
<!-- 41&#45;&gt;2 -->
<g id="edge42" class="edge"><title>41&#45;&gt;2</title>
<path fill="none" stroke="grey" stroke-width="2" d="M4454.38,-288.437C4438.94,-278.887 4420.29,-267.35 4404.28,-257.443"/>
<polygon fill="grey" stroke="grey" points="4406.03,-254.414 4395.69,-252.13 4402.35,-260.367 4406.03,-254.414"/>
</g>
<!-- 42 -->
<g id="node43" class="node"><title>42</title>
<path fill="none" stroke="#88d856" stroke-width="2" stroke-dasharray="5,2" d="M4642,-329.5C4642,-329.5 4566,-329.5 4566,-329.5 4560,-329.5 4554,-323.5 4554,-317.5 4554,-317.5 4554,-300.5 4554,-300.5 4554,-294.5 4560,-288.5 4566,-288.5 4566,-288.5 4642,-288.5 4642,-288.5 4648,-288.5 4654,-294.5 4654,-300.5 4654,-300.5 4654,-317.5 4654,-317.5 4654,-323.5 4648,-329.5 4642,-329.5"/>
<text text-anchor="middle" x="4604" y="-317.5" font-family="sans" font-size="10.00">createBatchNpz</text>
<text text-anchor="middle" x="4604" y="-306.5" font-family="sans" font-size="10.00">batch: batch_220</text>
<text text-anchor="middle" x="4604" y="-295.5" font-family="sans" font-size="10.00">simtype: hard</text>
</g>
<!-- 42&#45;&gt;2 -->
<g id="edge43" class="edge"><title>42&#45;&gt;2</title>
<path fill="none" stroke="grey" stroke-width="2" d="M4553.83,-290.856C4550.84,-289.879 4547.89,-288.921 4545,-288 4500.59,-273.828 4449.55,-258.665 4413.73,-248.204"/>
<polygon fill="grey" stroke="grey" points="4414.63,-244.821 4404.05,-245.383 4412.67,-251.541 4414.63,-244.821"/>
</g>
<!-- 43 -->
<g id="node44" class="node"><title>43</title>
<path fill="none" stroke="#88d856" stroke-width="2" stroke-dasharray="5,2" d="M4760,-329.5C4760,-329.5 4684,-329.5 4684,-329.5 4678,-329.5 4672,-323.5 4672,-317.5 4672,-317.5 4672,-300.5 4672,-300.5 4672,-294.5 4678,-288.5 4684,-288.5 4684,-288.5 4760,-288.5 4760,-288.5 4766,-288.5 4772,-294.5 4772,-300.5 4772,-300.5 4772,-317.5 4772,-317.5 4772,-323.5 4766,-329.5 4760,-329.5"/>
<text text-anchor="middle" x="4722" y="-317.5" font-family="sans" font-size="10.00">createBatchNpz</text>
<text text-anchor="middle" x="4722" y="-306.5" font-family="sans" font-size="10.00">batch: batch_140</text>
<text text-anchor="middle" x="4722" y="-295.5" font-family="sans" font-size="10.00">simtype: hard</text>
</g>
<!-- 43&#45;&gt;2 -->
<g id="edge44" class="edge"><title>43&#45;&gt;2</title>
<path fill="none" stroke="grey" stroke-width="2" d="M4671.94,-290.464C4668.93,-289.586 4665.93,-288.756 4663,-288 4576.25,-265.637 4472.76,-249.382 4414.28,-241.134"/>
<polygon fill="grey" stroke="grey" points="4414.64,-237.65 4404.25,-239.736 4413.67,-244.583 4414.64,-237.65"/>
</g>
<!-- 44 -->
<g id="node45" class="node"><title>44</title>
<path fill="none" stroke="#88d856" stroke-width="2" stroke-dasharray="5,2" d="M4878,-329.5C4878,-329.5 4802,-329.5 4802,-329.5 4796,-329.5 4790,-323.5 4790,-317.5 4790,-317.5 4790,-300.5 4790,-300.5 4790,-294.5 4796,-288.5 4802,-288.5 4802,-288.5 4878,-288.5 4878,-288.5 4884,-288.5 4890,-294.5 4890,-300.5 4890,-300.5 4890,-317.5 4890,-317.5 4890,-323.5 4884,-329.5 4878,-329.5"/>
<text text-anchor="middle" x="4840" y="-317.5" font-family="sans" font-size="10.00">createBatchNpz</text>
<text text-anchor="middle" x="4840" y="-306.5" font-family="sans" font-size="10.00">batch: batch_280</text>
<text text-anchor="middle" x="4840" y="-295.5" font-family="sans" font-size="10.00">simtype: hard</text>
</g>
<!-- 44&#45;&gt;2 -->
<g id="edge45" class="edge"><title>44&#45;&gt;2</title>
<path fill="none" stroke="grey" stroke-width="2" d="M4789.98,-290.289C4786.96,-289.454 4783.95,-288.682 4781,-288 4650,-257.709 4491.34,-243.456 4414.36,-237.927"/>
<polygon fill="grey" stroke="grey" points="4414.28,-234.412 4404.06,-237.203 4413.79,-241.395 4414.28,-234.412"/>
</g>
<!-- 45 -->
<g id="node46" class="node"><title>45</title>
<path fill="none" stroke="#88d856" stroke-width="2" stroke-dasharray="5,2" d="M4996,-329.5C4996,-329.5 4920,-329.5 4920,-329.5 4914,-329.5 4908,-323.5 4908,-317.5 4908,-317.5 4908,-300.5 4908,-300.5 4908,-294.5 4914,-288.5 4920,-288.5 4920,-288.5 4996,-288.5 4996,-288.5 5002,-288.5 5008,-294.5 5008,-300.5 5008,-300.5 5008,-317.5 5008,-317.5 5008,-323.5 5002,-329.5 4996,-329.5"/>
<text text-anchor="middle" x="4958" y="-317.5" font-family="sans" font-size="10.00">createBatchNpz</text>
<text text-anchor="middle" x="4958" y="-306.5" font-family="sans" font-size="10.00">batch: batch_420</text>
<text text-anchor="middle" x="4958" y="-295.5" font-family="sans" font-size="10.00">simtype: hard</text>
</g>
<!-- 45&#45;&gt;2 -->
<g id="edge46" class="edge"><title>45&#45;&gt;2</title>
<path fill="none" stroke="grey" stroke-width="2" d="M4907.68,-290.103C4904.76,-289.328 4901.85,-288.618 4899,-288 4722.66,-249.833 4507.32,-239.064 4414.37,-236.096"/>
<polygon fill="grey" stroke="grey" points="4414.28,-232.591 4404.18,-235.786 4414.06,-239.588 4414.28,-232.591"/>
</g>
<!-- 46 -->
<g id="node47" class="node"><title>46</title>
<path fill="none" stroke="#88d856" stroke-width="2" stroke-dasharray="5,2" d="M5114,-329.5C5114,-329.5 5038,-329.5 5038,-329.5 5032,-329.5 5026,-323.5 5026,-317.5 5026,-317.5 5026,-300.5 5026,-300.5 5026,-294.5 5032,-288.5 5038,-288.5 5038,-288.5 5114,-288.5 5114,-288.5 5120,-288.5 5126,-294.5 5126,-300.5 5126,-300.5 5126,-317.5 5126,-317.5 5126,-323.5 5120,-329.5 5114,-329.5"/>
<text text-anchor="middle" x="5076" y="-317.5" font-family="sans" font-size="10.00">createBatchNpz</text>
<text text-anchor="middle" x="5076" y="-306.5" font-family="sans" font-size="10.00">batch: batch_360</text>
<text text-anchor="middle" x="5076" y="-295.5" font-family="sans" font-size="10.00">simtype: hard</text>
</g>
<!-- 46&#45;&gt;2 -->
<g id="edge47" class="edge"><title>46&#45;&gt;2</title>
<path fill="none" stroke="grey" stroke-width="2" d="M5025.69,-290.042C5022.77,-289.282 5019.86,-288.592 5017,-288 4794.7,-241.975 4521.81,-235.544 4414.49,-234.91"/>
<polygon fill="grey" stroke="grey" points="4414.34,-231.41 4404.32,-234.865 4414.31,-238.41 4414.34,-231.41"/>
</g>
<!-- 47 -->
<g id="node48" class="node"><title>47</title>
<path fill="none" stroke="#88d856" stroke-width="2" stroke-dasharray="5,2" d="M5226,-329.5C5226,-329.5 5156,-329.5 5156,-329.5 5150,-329.5 5144,-323.5 5144,-317.5 5144,-317.5 5144,-300.5 5144,-300.5 5144,-294.5 5150,-288.5 5156,-288.5 5156,-288.5 5226,-288.5 5226,-288.5 5232,-288.5 5238,-294.5 5238,-300.5 5238,-300.5 5238,-317.5 5238,-317.5 5238,-323.5 5232,-329.5 5226,-329.5"/>
<text text-anchor="middle" x="5191" y="-317.5" font-family="sans" font-size="10.00">createBatchNpz</text>
<text text-anchor="middle" x="5191" y="-306.5" font-family="sans" font-size="10.00">batch: batch_40</text>
<text text-anchor="middle" x="5191" y="-295.5" font-family="sans" font-size="10.00">simtype: hard</text>
</g>
<!-- 47&#45;&gt;2 -->
<g id="edge48" class="edge"><title>47&#45;&gt;2</title>
<path fill="none" stroke="grey" stroke-width="2" d="M5143.91,-290.156C5140.92,-289.343 5137.93,-288.612 5135,-288 4996.06,-258.966 4558.61,-241.594 4414.53,-236.545"/>
<polygon fill="grey" stroke="grey" points="4414.38,-233.038 4404.27,-236.189 4414.14,-240.034 4414.38,-233.038"/>
</g>
<!-- 48 -->
<g id="node49" class="node"><title>48</title>
<path fill="none" stroke="#88d856" stroke-width="2" stroke-dasharray="5,2" d="M5344,-329.5C5344,-329.5 5268,-329.5 5268,-329.5 5262,-329.5 5256,-323.5 5256,-317.5 5256,-317.5 5256,-300.5 5256,-300.5 5256,-294.5 5262,-288.5 5268,-288.5 5268,-288.5 5344,-288.5 5344,-288.5 5350,-288.5 5356,-294.5 5356,-300.5 5356,-300.5 5356,-317.5 5356,-317.5 5356,-323.5 5350,-329.5 5344,-329.5"/>
<text text-anchor="middle" x="5306" y="-317.5" font-family="sans" font-size="10.00">createBatchNpz</text>
<text text-anchor="middle" x="5306" y="-306.5" font-family="sans" font-size="10.00">batch: batch_260</text>
<text text-anchor="middle" x="5306" y="-295.5" font-family="sans" font-size="10.00">simtype: hard</text>
</g>
<!-- 48&#45;&gt;2 -->
<g id="edge49" class="edge"><title>48&#45;&gt;2</title>
<path fill="none" stroke="grey" stroke-width="2" d="M5255.71,-289.969C5252.78,-289.227 5249.87,-288.562 5247,-288 5085.31,-256.312 4572.75,-240.412 4414.8,-236.178"/>
<polygon fill="grey" stroke="grey" points="4414.57,-232.671 4404.48,-235.905 4414.38,-239.669 4414.57,-232.671"/>
</g>
<!-- 49 -->
<g id="node50" class="node"><title>49</title>
<path fill="none" stroke="#88d856" stroke-width="2" stroke-dasharray="5,2" d="M5456,-329.5C5456,-329.5 5386,-329.5 5386,-329.5 5380,-329.5 5374,-323.5 5374,-317.5 5374,-317.5 5374,-300.5 5374,-300.5 5374,-294.5 5380,-288.5 5386,-288.5 5386,-288.5 5456,-288.5 5456,-288.5 5462,-288.5 5468,-294.5 5468,-300.5 5468,-300.5 5468,-317.5 5468,-317.5 5468,-323.5 5462,-329.5 5456,-329.5"/>
<text text-anchor="middle" x="5421" y="-317.5" font-family="sans" font-size="10.00">createBatchNpz</text>
<text text-anchor="middle" x="5421" y="-306.5" font-family="sans" font-size="10.00">batch: batch_0</text>
<text text-anchor="middle" x="5421" y="-295.5" font-family="sans" font-size="10.00">simtype: hard</text>
</g>
<!-- 49&#45;&gt;2 -->
<g id="edge50" class="edge"><title>49&#45;&gt;2</title>
<path fill="none" stroke="grey" stroke-width="2" d="M5373.92,-290.101C5370.92,-289.301 5367.94,-288.589 5365,-288 5179.5,-250.771 4585.37,-238.495 4414.42,-235.687"/>
<polygon fill="grey" stroke="grey" points="4414.3,-232.185 4404.25,-235.523 4414.19,-239.184 4414.3,-232.185"/>
</g>
<!-- 50 -->
<g id="node51" class="node"><title>50</title>
<path fill="none" stroke="#88d856" stroke-width="2" stroke-dasharray="5,2" d="M5574,-329.5C5574,-329.5 5498,-329.5 5498,-329.5 5492,-329.5 5486,-323.5 5486,-317.5 5486,-317.5 5486,-300.5 5486,-300.5 5486,-294.5 5492,-288.5 5498,-288.5 5498,-288.5 5574,-288.5 5574,-288.5 5580,-288.5 5586,-294.5 5586,-300.5 5586,-300.5 5586,-317.5 5586,-317.5 5586,-323.5 5580,-329.5 5574,-329.5"/>
<text text-anchor="middle" x="5536" y="-317.5" font-family="sans" font-size="10.00">createBatchNpz</text>
<text text-anchor="middle" x="5536" y="-306.5" font-family="sans" font-size="10.00">batch: batch_320</text>
<text text-anchor="middle" x="5536" y="-295.5" font-family="sans" font-size="10.00">simtype: hard</text>
</g>
<!-- 50&#45;&gt;2 -->
<g id="edge51" class="edge"><title>50&#45;&gt;2</title>
<path fill="none" stroke="grey" stroke-width="2" d="M5485.72,-289.926C5482.79,-289.195 5479.87,-288.544 5477,-288 5268.23,-248.436 4596.52,-237.709 4414.09,-235.493"/>
<polygon fill="grey" stroke="grey" points="4414.07,-231.993 4404.03,-235.373 4413.99,-238.992 4414.07,-231.993"/>
</g>
<!-- 51 -->
<g id="node52" class="node"><title>51</title>
<path fill="none" stroke="#88d856" stroke-width="2" stroke-dasharray="5,2" d="M5692,-329.5C5692,-329.5 5616,-329.5 5616,-329.5 5610,-329.5 5604,-323.5 5604,-317.5 5604,-317.5 5604,-300.5 5604,-300.5 5604,-294.5 5610,-288.5 5616,-288.5 5616,-288.5 5692,-288.5 5692,-288.5 5698,-288.5 5704,-294.5 5704,-300.5 5704,-300.5 5704,-317.5 5704,-317.5 5704,-323.5 5698,-329.5 5692,-329.5"/>
<text text-anchor="middle" x="5654" y="-317.5" font-family="sans" font-size="10.00">createBatchNpz</text>
<text text-anchor="middle" x="5654" y="-306.5" font-family="sans" font-size="10.00">batch: batch_400</text>
<text text-anchor="middle" x="5654" y="-295.5" font-family="sans" font-size="10.00">simtype: hard</text>
</g>
<!-- 51&#45;&gt;2 -->
<g id="edge52" class="edge"><title>51&#45;&gt;2</title>
<path fill="none" stroke="grey" stroke-width="2" d="M5603.72,-289.91C5600.79,-289.183 5597.87,-288.537 5595,-288 5362.19,-244.433 4609.38,-236.568 4414.44,-235.25"/>
<polygon fill="grey" stroke="grey" points="4414.28,-231.749 4404.25,-235.183 4414.23,-238.748 4414.28,-231.749"/>
</g>
<!-- 52 -->
<g id="node53" class="node"><title>52</title>
<path fill="none" stroke="#88d856" stroke-width="2" stroke-dasharray="5,2" d="M5810,-329.5C5810,-329.5 5734,-329.5 5734,-329.5 5728,-329.5 5722,-323.5 5722,-317.5 5722,-317.5 5722,-300.5 5722,-300.5 5722,-294.5 5728,-288.5 5734,-288.5 5734,-288.5 5810,-288.5 5810,-288.5 5816,-288.5 5822,-294.5 5822,-300.5 5822,-300.5 5822,-317.5 5822,-317.5 5822,-323.5 5816,-329.5 5810,-329.5"/>
<text text-anchor="middle" x="5772" y="-317.5" font-family="sans" font-size="10.00">createBatchNpz</text>
<text text-anchor="middle" x="5772" y="-306.5" font-family="sans" font-size="10.00">batch: batch_200</text>
<text text-anchor="middle" x="5772" y="-295.5" font-family="sans" font-size="10.00">simtype: hard</text>
</g>
<!-- 52&#45;&gt;2 -->
<g id="edge53" class="edge"><title>52&#45;&gt;2</title>
<path fill="none" stroke="grey" stroke-width="2" d="M5721.72,-289.897C5718.79,-289.174 5715.87,-288.532 5713,-288 5455.95,-240.399 4620.88,-235.519 4414.46,-235.045"/>
<polygon fill="grey" stroke="grey" points="4414.28,-231.545 4404.27,-235.024 4414.26,-238.545 4414.28,-231.545"/>
</g>
<!-- 53 -->
<g id="node54" class="node"><title>53</title>
<path fill="none" stroke="#88d856" stroke-width="2" stroke-dasharray="5,2" d="M5928,-329.5C5928,-329.5 5852,-329.5 5852,-329.5 5846,-329.5 5840,-323.5 5840,-317.5 5840,-317.5 5840,-300.5 5840,-300.5 5840,-294.5 5846,-288.5 5852,-288.5 5852,-288.5 5928,-288.5 5928,-288.5 5934,-288.5 5940,-294.5 5940,-300.5 5940,-300.5 5940,-317.5 5940,-317.5 5940,-323.5 5934,-329.5 5928,-329.5"/>
<text text-anchor="middle" x="5890" y="-317.5" font-family="sans" font-size="10.00">createBatchNpz</text>
<text text-anchor="middle" x="5890" y="-306.5" font-family="sans" font-size="10.00">batch: batch_380</text>
<text text-anchor="middle" x="5890" y="-295.5" font-family="sans" font-size="10.00">simtype: soft</text>
</g>
<!-- 53&#45;&gt;2 -->
<g id="edge54" class="edge"><title>53&#45;&gt;2</title>
<path fill="none" stroke="grey" stroke-width="2" d="M5839.73,-289.886C5836.79,-289.166 5833.87,-288.527 5831,-288 5549.53,-236.34 4631.23,-234.555 4414.25,-234.873"/>
<polygon fill="grey" stroke="grey" points="4414.15,-231.373 4404.16,-234.891 4414.16,-238.373 4414.15,-231.373"/>
</g>
<!-- 54 -->
<g id="node55" class="node"><title>54</title>
<path fill="none" stroke="#88d856" stroke-width="2" stroke-dasharray="5,2" d="M6046,-329.5C6046,-329.5 5970,-329.5 5970,-329.5 5964,-329.5 5958,-323.5 5958,-317.5 5958,-317.5 5958,-300.5 5958,-300.5 5958,-294.5 5964,-288.5 5970,-288.5 5970,-288.5 6046,-288.5 6046,-288.5 6052,-288.5 6058,-294.5 6058,-300.5 6058,-300.5 6058,-317.5 6058,-317.5 6058,-323.5 6052,-329.5 6046,-329.5"/>
<text text-anchor="middle" x="6008" y="-317.5" font-family="sans" font-size="10.00">createBatchNpz</text>
<text text-anchor="middle" x="6008" y="-306.5" font-family="sans" font-size="10.00">batch: batch_240</text>
<text text-anchor="middle" x="6008" y="-295.5" font-family="sans" font-size="10.00">simtype: soft</text>
</g>
<!-- 54&#45;&gt;2 -->
<g id="edge55" class="edge"><title>54&#45;&gt;2</title>
<path fill="none" stroke="grey" stroke-width="2" d="M5957.73,-289.877C5954.8,-289.159 5951.87,-288.523 5949,-288 5643.3,-232.32 4642.77,-233.664 4414.61,-234.726"/>
<polygon fill="grey" stroke="grey" points="4414.32,-231.227 4404.33,-234.776 4414.35,-238.227 4414.32,-231.227"/>
</g>
<!-- 55 -->
<g id="node56" class="node"><title>55</title>
<path fill="none" stroke="#88d856" stroke-width="2" stroke-dasharray="5,2" d="M6164,-329.5C6164,-329.5 6088,-329.5 6088,-329.5 6082,-329.5 6076,-323.5 6076,-317.5 6076,-317.5 6076,-300.5 6076,-300.5 6076,-294.5 6082,-288.5 6088,-288.5 6088,-288.5 6164,-288.5 6164,-288.5 6170,-288.5 6176,-294.5 6176,-300.5 6176,-300.5 6176,-317.5 6176,-317.5 6176,-323.5 6170,-329.5 6164,-329.5"/>
<text text-anchor="middle" x="6126" y="-317.5" font-family="sans" font-size="10.00">createBatchNpz</text>
<text text-anchor="middle" x="6126" y="-306.5" font-family="sans" font-size="10.00">batch: batch_300</text>
<text text-anchor="middle" x="6126" y="-295.5" font-family="sans" font-size="10.00">simtype: soft</text>
</g>
<!-- 55&#45;&gt;2 -->
<g id="edge56" class="edge"><title>55&#45;&gt;2</title>
<path fill="none" stroke="grey" stroke-width="2" d="M6075.73,-289.869C6072.8,-289.153 6069.87,-288.52 6067,-288 5900.52,-257.876 4668.97,-239.192 4414.09,-235.625"/>
<polygon fill="grey" stroke="grey" points="4414.1,-232.125 4404.06,-235.486 4414.01,-239.125 4414.1,-232.125"/>
</g>
<!-- 56 -->
<g id="node57" class="node"><title>56</title>
<path fill="none" stroke="#88d856" stroke-width="2" stroke-dasharray="5,2" d="M6276,-329.5C6276,-329.5 6206,-329.5 6206,-329.5 6200,-329.5 6194,-323.5 6194,-317.5 6194,-317.5 6194,-300.5 6194,-300.5 6194,-294.5 6200,-288.5 6206,-288.5 6206,-288.5 6276,-288.5 6276,-288.5 6282,-288.5 6288,-294.5 6288,-300.5 6288,-300.5 6288,-317.5 6288,-317.5 6288,-323.5 6282,-329.5 6276,-329.5"/>
<text text-anchor="middle" x="6241" y="-317.5" font-family="sans" font-size="10.00">createBatchNpz</text>
<text text-anchor="middle" x="6241" y="-306.5" font-family="sans" font-size="10.00">batch: batch_80</text>
<text text-anchor="middle" x="6241" y="-295.5" font-family="sans" font-size="10.00">simtype: soft</text>
</g>
<!-- 56&#45;&gt;2 -->
<g id="edge57" class="edge"><title>56&#45;&gt;2</title>
<path fill="none" stroke="grey" stroke-width="2" d="M6193.93,-290.018C6190.94,-289.239 6187.94,-288.554 6185,-288 6006.54,-254.4 4680.1,-238.375 4414.29,-235.483"/>
<polygon fill="grey" stroke="grey" points="4414.25,-231.983 4404.21,-235.375 4414.18,-238.982 4414.25,-231.983"/>
</g>
<!-- 57 -->
<g id="node58" class="node"><title>57</title>
<path fill="none" stroke="#88d856" stroke-width="2" stroke-dasharray="5,2" d="M6388,-329.5C6388,-329.5 6318,-329.5 6318,-329.5 6312,-329.5 6306,-323.5 6306,-317.5 6306,-317.5 6306,-300.5 6306,-300.5 6306,-294.5 6312,-288.5 6318,-288.5 6318,-288.5 6388,-288.5 6388,-288.5 6394,-288.5 6400,-294.5 6400,-300.5 6400,-300.5 6400,-317.5 6400,-317.5 6400,-323.5 6394,-329.5 6388,-329.5"/>
<text text-anchor="middle" x="6353" y="-317.5" font-family="sans" font-size="10.00">createBatchNpz</text>
<text text-anchor="middle" x="6353" y="-306.5" font-family="sans" font-size="10.00">batch: batch_60</text>
<text text-anchor="middle" x="6353" y="-295.5" font-family="sans" font-size="10.00">simtype: soft</text>
</g>
<!-- 57&#45;&gt;2 -->
<g id="edge58" class="edge"><title>57&#45;&gt;2</title>
<path fill="none" stroke="grey" stroke-width="2" d="M6305.93,-290.013C6302.94,-289.235 6299.94,-288.551 6297,-288 6106.81,-252.36 4688.86,-237.882 4414.05,-235.397"/>
<polygon fill="grey" stroke="grey" points="4414.05,-231.897 4404.02,-235.307 4413.99,-238.897 4414.05,-231.897"/>
</g>
<!-- 58 -->
<g id="node59" class="node"><title>58</title>
<path fill="none" stroke="#88d856" stroke-width="2" stroke-dasharray="5,2" d="M6506,-329.5C6506,-329.5 6430,-329.5 6430,-329.5 6424,-329.5 6418,-323.5 6418,-317.5 6418,-317.5 6418,-300.5 6418,-300.5 6418,-294.5 6424,-288.5 6430,-288.5 6430,-288.5 6506,-288.5 6506,-288.5 6512,-288.5 6518,-294.5 6518,-300.5 6518,-300.5 6518,-317.5 6518,-317.5 6518,-323.5 6512,-329.5 6506,-329.5"/>
<text text-anchor="middle" x="6468" y="-317.5" font-family="sans" font-size="10.00">createBatchNpz</text>
<text text-anchor="middle" x="6468" y="-306.5" font-family="sans" font-size="10.00">batch: batch_340</text>
<text text-anchor="middle" x="6468" y="-295.5" font-family="sans" font-size="10.00">simtype: soft</text>
</g>
<!-- 58&#45;&gt;2 -->
<g id="edge59" class="edge"><title>58&#45;&gt;2</title>
<path fill="none" stroke="grey" stroke-width="2" d="M6417.73,-289.851C6414.8,-289.139 6411.87,-288.512 6409,-288 6206.91,-251.978 4699.41,-237.751 4414.41,-235.37"/>
<polygon fill="grey" stroke="grey" points="4414.06,-231.867 4404.03,-235.284 4414,-238.867 4414.06,-231.867"/>
</g>
<!-- 59 -->
<g id="node60" class="node"><title>59</title>
<path fill="none" stroke="#88d856" stroke-width="2" stroke-dasharray="5,2" d="M6624,-329.5C6624,-329.5 6548,-329.5 6548,-329.5 6542,-329.5 6536,-323.5 6536,-317.5 6536,-317.5 6536,-300.5 6536,-300.5 6536,-294.5 6542,-288.5 6548,-288.5 6548,-288.5 6624,-288.5 6624,-288.5 6630,-288.5 6636,-294.5 6636,-300.5 6636,-300.5 6636,-317.5 6636,-317.5 6636,-323.5 6630,-329.5 6624,-329.5"/>
<text text-anchor="middle" x="6586" y="-317.5" font-family="sans" font-size="10.00">createBatchNpz</text>
<text text-anchor="middle" x="6586" y="-306.5" font-family="sans" font-size="10.00">batch: batch_160</text>
<text text-anchor="middle" x="6586" y="-295.5" font-family="sans" font-size="10.00">simtype: soft</text>
</g>
<!-- 59&#45;&gt;2 -->
<g id="edge60" class="edge"><title>59&#45;&gt;2</title>
<path fill="none" stroke="grey" stroke-width="2" d="M6535.73,-289.846C6532.8,-289.136 6529.88,-288.51 6527,-288 6312.65,-249.949 4710.18,-237.317 4414.75,-235.301"/>
<polygon fill="grey" stroke="grey" points="4414.42,-231.799 4404.4,-235.231 4414.37,-238.799 4414.42,-231.799"/>
</g>
<!-- 60 -->
<g id="node61" class="node"><title>60</title>
<path fill="none" stroke="#88d856" stroke-width="2" stroke-dasharray="5,2" d="M6742,-329.5C6742,-329.5 6666,-329.5 6666,-329.5 6660,-329.5 6654,-323.5 6654,-317.5 6654,-317.5 6654,-300.5 6654,-300.5 6654,-294.5 6660,-288.5 6666,-288.5 6666,-288.5 6742,-288.5 6742,-288.5 6748,-288.5 6754,-294.5 6754,-300.5 6754,-300.5 6754,-317.5 6754,-317.5 6754,-323.5 6748,-329.5 6742,-329.5"/>
<text text-anchor="middle" x="6704" y="-317.5" font-family="sans" font-size="10.00">createBatchNpz</text>
<text text-anchor="middle" x="6704" y="-306.5" font-family="sans" font-size="10.00">batch: batch_100</text>
<text text-anchor="middle" x="6704" y="-295.5" font-family="sans" font-size="10.00">simtype: soft</text>
</g>
<!-- 60&#45;&gt;2 -->
<g id="edge61" class="edge"><title>60&#45;&gt;2</title>
<path fill="none" stroke="grey" stroke-width="2" d="M6653.73,-289.841C6650.8,-289.132 6647.88,-288.509 6645,-288 6418.2,-247.888 4718.2,-236.889 4414.39,-235.235"/>
<polygon fill="grey" stroke="grey" points="4414.2,-231.734 4404.18,-235.181 4414.16,-238.734 4414.2,-231.734"/>
</g>
<!-- 61 -->
<g id="node62" class="node"><title>61</title>
<path fill="none" stroke="#88d856" stroke-width="2" stroke-dasharray="5,2" d="M6860,-329.5C6860,-329.5 6784,-329.5 6784,-329.5 6778,-329.5 6772,-323.5 6772,-317.5 6772,-317.5 6772,-300.5 6772,-300.5 6772,-294.5 6778,-288.5 6784,-288.5 6784,-288.5 6860,-288.5 6860,-288.5 6866,-288.5 6872,-294.5 6872,-300.5 6872,-300.5 6872,-317.5 6872,-317.5 6872,-323.5 6866,-329.5 6860,-329.5"/>
<text text-anchor="middle" x="6822" y="-317.5" font-family="sans" font-size="10.00">createBatchNpz</text>
<text text-anchor="middle" x="6822" y="-306.5" font-family="sans" font-size="10.00">batch: batch_460</text>
<text text-anchor="middle" x="6822" y="-295.5" font-family="sans" font-size="10.00">simtype: soft</text>
</g>
<!-- 61&#45;&gt;2 -->
<g id="edge62" class="edge"><title>61&#45;&gt;2</title>
<path fill="none" stroke="grey" stroke-width="2" d="M6771.73,-289.837C6768.8,-289.129 6765.88,-288.507 6763,-288 6523.81,-245.837 4726.98,-236.491 4414.32,-235.178"/>
<polygon fill="grey" stroke="grey" points="4414.26,-231.678 4404.25,-235.136 4414.23,-238.678 4414.26,-231.678"/>
</g>
<!-- 62 -->
<g id="node63" class="node"><title>62</title>
<path fill="none" stroke="#88d856" stroke-width="2" stroke-dasharray="5,2" d="M6978,-329.5C6978,-329.5 6902,-329.5 6902,-329.5 6896,-329.5 6890,-323.5 6890,-317.5 6890,-317.5 6890,-300.5 6890,-300.5 6890,-294.5 6896,-288.5 6902,-288.5 6902,-288.5 6978,-288.5 6978,-288.5 6984,-288.5 6990,-294.5 6990,-300.5 6990,-300.5 6990,-317.5 6990,-317.5 6990,-323.5 6984,-329.5 6978,-329.5"/>
<text text-anchor="middle" x="6940" y="-317.5" font-family="sans" font-size="10.00">createBatchNpz</text>
<text text-anchor="middle" x="6940" y="-306.5" font-family="sans" font-size="10.00">batch: batch_120</text>
<text text-anchor="middle" x="6940" y="-295.5" font-family="sans" font-size="10.00">simtype: soft</text>
</g>
<!-- 62&#45;&gt;2 -->
<g id="edge63" class="edge"><title>62&#45;&gt;2</title>
<path fill="none" stroke="grey" stroke-width="2" d="M6889.73,-289.834C6886.8,-289.127 6883.88,-288.505 6881,-288 6629.47,-243.798 4736.67,-236.118 4414.54,-235.127"/>
<polygon fill="grey" stroke="grey" points="4414.19,-231.626 4404.18,-235.096 4414.17,-238.626 4414.19,-231.626"/>
</g>
<!-- 63 -->
<g id="node64" class="node"><title>63</title>
<path fill="none" stroke="#88d856" stroke-width="2" stroke-dasharray="5,2" d="M7096,-329.5C7096,-329.5 7020,-329.5 7020,-329.5 7014,-329.5 7008,-323.5 7008,-317.5 7008,-317.5 7008,-300.5 7008,-300.5 7008,-294.5 7014,-288.5 7020,-288.5 7020,-288.5 7096,-288.5 7096,-288.5 7102,-288.5 7108,-294.5 7108,-300.5 7108,-300.5 7108,-317.5 7108,-317.5 7108,-323.5 7102,-329.5 7096,-329.5"/>
<text text-anchor="middle" x="7058" y="-317.5" font-family="sans" font-size="10.00">createBatchNpz</text>
<text text-anchor="middle" x="7058" y="-306.5" font-family="sans" font-size="10.00">batch: batch_440</text>
<text text-anchor="middle" x="7058" y="-295.5" font-family="sans" font-size="10.00">simtype: soft</text>
</g>
<!-- 63&#45;&gt;2 -->
<g id="edge64" class="edge"><title>63&#45;&gt;2</title>
<path fill="none" stroke="grey" stroke-width="2" d="M7007.74,-289.831C7004.8,-289.124 7001.88,-288.504 6999,-288 6735.1,-241.752 4745.74,-235.759 4414.64,-235.08"/>
<polygon fill="grey" stroke="grey" points="4414.46,-231.579 4404.45,-235.059 4414.44,-238.579 4414.46,-231.579"/>
</g>
<!-- 64 -->
<g id="node65" class="node"><title>64</title>
<path fill="none" stroke="#88d856" stroke-width="2" stroke-dasharray="5,2" d="M7208,-329.5C7208,-329.5 7138,-329.5 7138,-329.5 7132,-329.5 7126,-323.5 7126,-317.5 7126,-317.5 7126,-300.5 7126,-300.5 7126,-294.5 7132,-288.5 7138,-288.5 7138,-288.5 7208,-288.5 7208,-288.5 7214,-288.5 7220,-294.5 7220,-300.5 7220,-300.5 7220,-317.5 7220,-317.5 7220,-323.5 7214,-329.5 7208,-329.5"/>
<text text-anchor="middle" x="7173" y="-317.5" font-family="sans" font-size="10.00">createBatchNpz</text>
<text text-anchor="middle" x="7173" y="-306.5" font-family="sans" font-size="10.00">batch: batch_20</text>
<text text-anchor="middle" x="7173" y="-295.5" font-family="sans" font-size="10.00">simtype: soft</text>
</g>
<!-- 64&#45;&gt;2 -->
<g id="edge65" class="edge"><title>64&#45;&gt;2</title>
<path fill="none" stroke="grey" stroke-width="2" d="M7125.94,-289.984C7122.94,-289.213 7119.94,-288.539 7117,-288 6841,-237.447 4752.94,-235.047 4414.33,-234.991"/>
<polygon fill="grey" stroke="grey" points="4414.14,-231.491 4404.14,-234.99 4414.14,-238.491 4414.14,-231.491"/>
</g>
<!-- 65 -->
<g id="node66" class="node"><title>65</title>
<path fill="none" stroke="#88d856" stroke-width="2" stroke-dasharray="5,2" d="M7326,-329.5C7326,-329.5 7250,-329.5 7250,-329.5 7244,-329.5 7238,-323.5 7238,-317.5 7238,-317.5 7238,-300.5 7238,-300.5 7238,-294.5 7244,-288.5 7250,-288.5 7250,-288.5 7326,-288.5 7326,-288.5 7332,-288.5 7338,-294.5 7338,-300.5 7338,-300.5 7338,-317.5 7338,-317.5 7338,-323.5 7332,-329.5 7326,-329.5"/>
<text text-anchor="middle" x="7288" y="-317.5" font-family="sans" font-size="10.00">createBatchNpz</text>
<text text-anchor="middle" x="7288" y="-306.5" font-family="sans" font-size="10.00">batch: batch_480</text>
<text text-anchor="middle" x="7288" y="-295.5" font-family="sans" font-size="10.00">simtype: soft</text>
</g>
<!-- 65&#45;&gt;2 -->
<g id="edge66" class="edge"><title>65&#45;&gt;2</title>
<path fill="none" stroke="grey" stroke-width="2" d="M7237.74,-289.825C7234.8,-289.12 7231.88,-288.502 7229,-288 6940.79,-237.733 4760.61,-235.099 4414.29,-234.998"/>
<polygon fill="grey" stroke="grey" points="4414.13,-231.498 4404.13,-234.996 4414.12,-238.498 4414.13,-231.498"/>
</g>
<!-- 66 -->
<g id="node67" class="node"><title>66</title>
<path fill="none" stroke="#88d856" stroke-width="2" stroke-dasharray="5,2" d="M7444,-329.5C7444,-329.5 7368,-329.5 7368,-329.5 7362,-329.5 7356,-323.5 7356,-317.5 7356,-317.5 7356,-300.5 7356,-300.5 7356,-294.5 7362,-288.5 7368,-288.5 7368,-288.5 7444,-288.5 7444,-288.5 7450,-288.5 7456,-294.5 7456,-300.5 7456,-300.5 7456,-317.5 7456,-317.5 7456,-323.5 7450,-329.5 7444,-329.5"/>
<text text-anchor="middle" x="7406" y="-317.5" font-family="sans" font-size="10.00">createBatchNpz</text>
<text text-anchor="middle" x="7406" y="-306.5" font-family="sans" font-size="10.00">batch: batch_180</text>
<text text-anchor="middle" x="7406" y="-295.5" font-family="sans" font-size="10.00">simtype: soft</text>
</g>
<!-- 66&#45;&gt;2 -->
<g id="edge67" class="edge"><title>66&#45;&gt;2</title>
<path fill="none" stroke="grey" stroke-width="2" d="M7355.74,-289.822C7352.8,-289.118 7349.88,-288.501 7347,-288 7046.34,-235.676 4768.52,-234.782 4414.25,-234.962"/>
<polygon fill="grey" stroke="grey" points="4414.1,-231.462 4404.1,-234.967 4414.1,-238.462 4414.1,-231.462"/>
</g>
<!-- 67 -->
<g id="node68" class="node"><title>67</title>
<path fill="none" stroke="#88d856" stroke-width="2" stroke-dasharray="5,2" d="M7562,-329.5C7562,-329.5 7486,-329.5 7486,-329.5 7480,-329.5 7474,-323.5 7474,-317.5 7474,-317.5 7474,-300.5 7474,-300.5 7474,-294.5 7480,-288.5 7486,-288.5 7486,-288.5 7562,-288.5 7562,-288.5 7568,-288.5 7574,-294.5 7574,-300.5 7574,-300.5 7574,-317.5 7574,-317.5 7574,-323.5 7568,-329.5 7562,-329.5"/>
<text text-anchor="middle" x="7524" y="-317.5" font-family="sans" font-size="10.00">createBatchNpz</text>
<text text-anchor="middle" x="7524" y="-306.5" font-family="sans" font-size="10.00">batch: batch_220</text>
<text text-anchor="middle" x="7524" y="-295.5" font-family="sans" font-size="10.00">simtype: soft</text>
</g>
<!-- 67&#45;&gt;2 -->
<g id="edge68" class="edge"><title>67&#45;&gt;2</title>
<path fill="none" stroke="grey" stroke-width="2" d="M7473.74,-289.82C7470.8,-289.116 7467.88,-288.5 7465,-288 7151.93,-233.625 4777,-234.477 4414.38,-234.928"/>
<polygon fill="grey" stroke="grey" points="4414.23,-231.428 4404.24,-234.941 4414.24,-238.428 4414.23,-231.428"/>
</g>
<!-- 68 -->
<g id="node69" class="node"><title>68</title>
<path fill="none" stroke="#88d856" stroke-width="2" stroke-dasharray="5,2" d="M7680,-329.5C7680,-329.5 7604,-329.5 7604,-329.5 7598,-329.5 7592,-323.5 7592,-317.5 7592,-317.5 7592,-300.5 7592,-300.5 7592,-294.5 7598,-288.5 7604,-288.5 7604,-288.5 7680,-288.5 7680,-288.5 7686,-288.5 7692,-294.5 7692,-300.5 7692,-300.5 7692,-317.5 7692,-317.5 7692,-323.5 7686,-329.5 7680,-329.5"/>
<text text-anchor="middle" x="7642" y="-317.5" font-family="sans" font-size="10.00">createBatchNpz</text>
<text text-anchor="middle" x="7642" y="-306.5" font-family="sans" font-size="10.00">batch: batch_140</text>
<text text-anchor="middle" x="7642" y="-295.5" font-family="sans" font-size="10.00">simtype: soft</text>
</g>
<!-- 68&#45;&gt;2 -->
<g id="edge69" class="edge"><title>68&#45;&gt;2</title>
<path fill="none" stroke="grey" stroke-width="2" d="M7591.74,-289.818C7588.8,-289.115 7585.88,-288.499 7583,-288 7257.4,-231.554 4783.61,-234.184 4414.11,-234.897"/>
<polygon fill="grey" stroke="grey" points="4414.03,-231.397 4404.04,-234.917 4414.05,-238.397 4414.03,-231.397"/>
</g>
<!-- 69 -->
<g id="node70" class="node"><title>69</title>
<path fill="none" stroke="#88d856" stroke-width="2" stroke-dasharray="5,2" d="M7798,-329.5C7798,-329.5 7722,-329.5 7722,-329.5 7716,-329.5 7710,-323.5 7710,-317.5 7710,-317.5 7710,-300.5 7710,-300.5 7710,-294.5 7716,-288.5 7722,-288.5 7722,-288.5 7798,-288.5 7798,-288.5 7804,-288.5 7810,-294.5 7810,-300.5 7810,-300.5 7810,-317.5 7810,-317.5 7810,-323.5 7804,-329.5 7798,-329.5"/>
<text text-anchor="middle" x="7760" y="-317.5" font-family="sans" font-size="10.00">createBatchNpz</text>
<text text-anchor="middle" x="7760" y="-306.5" font-family="sans" font-size="10.00">batch: batch_280</text>
<text text-anchor="middle" x="7760" y="-295.5" font-family="sans" font-size="10.00">simtype: soft</text>
</g>
<!-- 69&#45;&gt;2 -->
<g id="edge70" class="edge"><title>69&#45;&gt;2</title>
<path fill="none" stroke="grey" stroke-width="2" d="M7709.74,-289.816C7706.8,-289.113 7703.88,-288.498 7701,-288 7362.91,-229.49 4790.89,-233.902 4414.03,-234.868"/>
<polygon fill="grey" stroke="grey" points="4414.02,-231.368 4404.03,-234.894 4414.04,-238.368 4414.02,-231.368"/>
</g>
<!-- 70 -->
<g id="node71" class="node"><title>70</title>
<path fill="none" stroke="#88d856" stroke-width="2" stroke-dasharray="5,2" d="M7916,-329.5C7916,-329.5 7840,-329.5 7840,-329.5 7834,-329.5 7828,-323.5 7828,-317.5 7828,-317.5 7828,-300.5 7828,-300.5 7828,-294.5 7834,-288.5 7840,-288.5 7840,-288.5 7916,-288.5 7916,-288.5 7922,-288.5 7928,-294.5 7928,-300.5 7928,-300.5 7928,-317.5 7928,-317.5 7928,-323.5 7922,-329.5 7916,-329.5"/>
<text text-anchor="middle" x="7878" y="-317.5" font-family="sans" font-size="10.00">createBatchNpz</text>
<text text-anchor="middle" x="7878" y="-306.5" font-family="sans" font-size="10.00">batch: batch_420</text>
<text text-anchor="middle" x="7878" y="-295.5" font-family="sans" font-size="10.00">simtype: soft</text>
</g>
<!-- 70&#45;&gt;2 -->
<g id="edge71" class="edge"><title>70&#45;&gt;2</title>
<path fill="none" stroke="grey" stroke-width="2" d="M7827.74,-289.814C7824.8,-289.112 7821.88,-288.497 7819,-288 7468.56,-227.451 4800.29,-233.623 4414.45,-234.84"/>
<polygon fill="grey" stroke="grey" points="4414.2,-231.341 4404.21,-234.873 4414.22,-238.34 4414.2,-231.341"/>
</g>
<!-- 71 -->
<g id="node72" class="node"><title>71</title>
<path fill="none" stroke="#88d856" stroke-width="2" stroke-dasharray="5,2" d="M8034,-329.5C8034,-329.5 7958,-329.5 7958,-329.5 7952,-329.5 7946,-323.5 7946,-317.5 7946,-317.5 7946,-300.5 7946,-300.5 7946,-294.5 7952,-288.5 7958,-288.5 7958,-288.5 8034,-288.5 8034,-288.5 8040,-288.5 8046,-294.5 8046,-300.5 8046,-300.5 8046,-317.5 8046,-317.5 8046,-323.5 8040,-329.5 8034,-329.5"/>
<text text-anchor="middle" x="7996" y="-317.5" font-family="sans" font-size="10.00">createBatchNpz</text>
<text text-anchor="middle" x="7996" y="-306.5" font-family="sans" font-size="10.00">batch: batch_360</text>
<text text-anchor="middle" x="7996" y="-295.5" font-family="sans" font-size="10.00">simtype: soft</text>
</g>
<!-- 71&#45;&gt;2 -->
<g id="edge72" class="edge"><title>71&#45;&gt;2</title>
<path fill="none" stroke="grey" stroke-width="2" d="M7945.74,-289.812C7942.8,-289.111 7939.88,-288.496 7937,-288 7755.13,-256.623 4820.24,-237.742 4414.41,-235.276"/>
<polygon fill="grey" stroke="grey" points="4414.23,-231.775 4404.21,-235.214 4414.19,-238.775 4414.23,-231.775"/>
</g>
<!-- 72 -->
<g id="node73" class="node"><title>72</title>
<path fill="none" stroke="#88d856" stroke-width="2" stroke-dasharray="5,2" d="M8146,-329.5C8146,-329.5 8076,-329.5 8076,-329.5 8070,-329.5 8064,-323.5 8064,-317.5 8064,-317.5 8064,-300.5 8064,-300.5 8064,-294.5 8070,-288.5 8076,-288.5 8076,-288.5 8146,-288.5 8146,-288.5 8152,-288.5 8158,-294.5 8158,-300.5 8158,-300.5 8158,-317.5 8158,-317.5 8158,-323.5 8152,-329.5 8146,-329.5"/>
<text text-anchor="middle" x="8111" y="-317.5" font-family="sans" font-size="10.00">createBatchNpz</text>
<text text-anchor="middle" x="8111" y="-306.5" font-family="sans" font-size="10.00">batch: batch_40</text>
<text text-anchor="middle" x="8111" y="-295.5" font-family="sans" font-size="10.00">simtype: soft</text>
</g>
<!-- 72&#45;&gt;2 -->
<g id="edge73" class="edge"><title>72&#45;&gt;2</title>
<path fill="none" stroke="grey" stroke-width="2" d="M8063.94,-289.967C8060.94,-289.2 8057.95,-288.532 8055,-288 7867.13,-254.067 4827.42,-237.351 4414.34,-235.232"/>
<polygon fill="grey" stroke="grey" points="4414.27,-231.731 4404.25,-235.18 4414.23,-238.731 4414.27,-231.731"/>
</g>
<!-- 73 -->
<g id="node74" class="node"><title>73</title>
<path fill="none" stroke="#88d856" stroke-width="2" stroke-dasharray="5,2" d="M8264,-329.5C8264,-329.5 8188,-329.5 8188,-329.5 8182,-329.5 8176,-323.5 8176,-317.5 8176,-317.5 8176,-300.5 8176,-300.5 8176,-294.5 8182,-288.5 8188,-288.5 8188,-288.5 8264,-288.5 8264,-288.5 8270,-288.5 8276,-294.5 8276,-300.5 8276,-300.5 8276,-317.5 8276,-317.5 8276,-323.5 8270,-329.5 8264,-329.5"/>
<text text-anchor="middle" x="8226" y="-317.5" font-family="sans" font-size="10.00">createBatchNpz</text>
<text text-anchor="middle" x="8226" y="-306.5" font-family="sans" font-size="10.00">batch: batch_260</text>
<text text-anchor="middle" x="8226" y="-295.5" font-family="sans" font-size="10.00">simtype: soft</text>
</g>
<!-- 73&#45;&gt;2 -->
<g id="edge74" class="edge"><title>73&#45;&gt;2</title>
<path fill="none" stroke="grey" stroke-width="2" d="M8175.74,-289.809C8172.81,-289.108 8169.88,-288.495 8167,-288 7972.94,-254.611 4834.83,-237.394 4414.43,-235.233"/>
<polygon fill="grey" stroke="grey" points="4414.18,-231.732 4404.17,-235.18 4414.15,-238.732 4414.18,-231.732"/>
</g>
<!-- 74 -->
<g id="node75" class="node"><title>74</title>
<path fill="none" stroke="#88d856" stroke-width="2" stroke-dasharray="5,2" d="M8376,-329.5C8376,-329.5 8306,-329.5 8306,-329.5 8300,-329.5 8294,-323.5 8294,-317.5 8294,-317.5 8294,-300.5 8294,-300.5 8294,-294.5 8300,-288.5 8306,-288.5 8306,-288.5 8376,-288.5 8376,-288.5 8382,-288.5 8388,-294.5 8388,-300.5 8388,-300.5 8388,-317.5 8388,-317.5 8388,-323.5 8382,-329.5 8376,-329.5"/>
<text text-anchor="middle" x="8341" y="-317.5" font-family="sans" font-size="10.00">createBatchNpz</text>
<text text-anchor="middle" x="8341" y="-306.5" font-family="sans" font-size="10.00">batch: batch_0</text>
<text text-anchor="middle" x="8341" y="-295.5" font-family="sans" font-size="10.00">simtype: soft</text>
</g>
<!-- 74&#45;&gt;2 -->
<g id="edge75" class="edge"><title>74&#45;&gt;2</title>
<path fill="none" stroke="grey" stroke-width="2" d="M8293.94,-289.964C8290.94,-289.198 8287.95,-288.531 8285,-288 8084.94,-251.951 4841.05,-237.005 4414.22,-235.191"/>
<polygon fill="grey" stroke="grey" points="4414.11,-231.69 4404.09,-235.148 4414.08,-238.69 4414.11,-231.69"/>
</g>
<!-- 75 -->
<g id="node76" class="node"><title>75</title>
<path fill="none" stroke="#88d856" stroke-width="2" stroke-dasharray="5,2" d="M8494,-329.5C8494,-329.5 8418,-329.5 8418,-329.5 8412,-329.5 8406,-323.5 8406,-317.5 8406,-317.5 8406,-300.5 8406,-300.5 8406,-294.5 8412,-288.5 8418,-288.5 8418,-288.5 8494,-288.5 8494,-288.5 8500,-288.5 8506,-294.5 8506,-300.5 8506,-300.5 8506,-317.5 8506,-317.5 8506,-323.5 8500,-329.5 8494,-329.5"/>
<text text-anchor="middle" x="8456" y="-317.5" font-family="sans" font-size="10.00">createBatchNpz</text>
<text text-anchor="middle" x="8456" y="-306.5" font-family="sans" font-size="10.00">batch: batch_320</text>
<text text-anchor="middle" x="8456" y="-295.5" font-family="sans" font-size="10.00">simtype: soft</text>
</g>
<!-- 75&#45;&gt;2 -->
<g id="edge76" class="edge"><title>75&#45;&gt;2</title>
<path fill="none" stroke="grey" stroke-width="2" d="M8405.74,-289.806C8402.81,-289.106 8399.88,-288.494 8397,-288 8190.76,-252.599 4849.34,-237.07 4414.52,-235.195"/>
<polygon fill="grey" stroke="grey" points="4414.23,-231.694 4404.21,-235.151 4414.2,-238.694 4414.23,-231.694"/>
</g>
<!-- 76 -->
<g id="node77" class="node"><title>76</title>
<path fill="none" stroke="#88d856" stroke-width="2" stroke-dasharray="5,2" d="M8612,-329.5C8612,-329.5 8536,-329.5 8536,-329.5 8530,-329.5 8524,-323.5 8524,-317.5 8524,-317.5 8524,-300.5 8524,-300.5 8524,-294.5 8530,-288.5 8536,-288.5 8536,-288.5 8612,-288.5 8612,-288.5 8618,-288.5 8624,-294.5 8624,-300.5 8624,-300.5 8624,-317.5 8624,-317.5 8624,-323.5 8618,-329.5 8612,-329.5"/>
<text text-anchor="middle" x="8574" y="-317.5" font-family="sans" font-size="10.00">createBatchNpz</text>
<text text-anchor="middle" x="8574" y="-306.5" font-family="sans" font-size="10.00">batch: batch_400</text>
<text text-anchor="middle" x="8574" y="-295.5" font-family="sans" font-size="10.00">simtype: soft</text>
</g>
<!-- 76&#45;&gt;2 -->
<g id="edge77" class="edge"><title>76&#45;&gt;2</title>
<path fill="none" stroke="grey" stroke-width="2" d="M8523.74,-289.805C8520.81,-289.105 8517.88,-288.493 8515,-288 8302.44,-251.556 4854.61,-236.902 4414.17,-235.176"/>
<polygon fill="grey" stroke="grey" points="4414.05,-231.675 4404.04,-235.136 4414.02,-238.675 4414.05,-231.675"/>
</g>
<!-- 77 -->
<g id="node78" class="node"><title>77</title>
<path fill="none" stroke="#88d856" stroke-width="2" stroke-dasharray="5,2" d="M8730,-329.5C8730,-329.5 8654,-329.5 8654,-329.5 8648,-329.5 8642,-323.5 8642,-317.5 8642,-317.5 8642,-300.5 8642,-300.5 8642,-294.5 8648,-288.5 8654,-288.5 8654,-288.5 8730,-288.5 8730,-288.5 8736,-288.5 8742,-294.5 8742,-300.5 8742,-300.5 8742,-317.5 8742,-317.5 8742,-323.5 8736,-329.5 8730,-329.5"/>
<text text-anchor="middle" x="8692" y="-317.5" font-family="sans" font-size="10.00">createBatchNpz</text>
<text text-anchor="middle" x="8692" y="-306.5" font-family="sans" font-size="10.00">batch: batch_200</text>
<text text-anchor="middle" x="8692" y="-295.5" font-family="sans" font-size="10.00">simtype: soft</text>
</g>
<!-- 77&#45;&gt;2 -->
<g id="edge78" class="edge"><title>77&#45;&gt;2</title>
<path fill="none" stroke="grey" stroke-width="2" d="M8641.74,-289.804C8638.81,-289.104 8635.88,-288.493 8633,-288 8414.22,-250.528 4862.95,-236.753 4414.43,-235.16"/>
<polygon fill="grey" stroke="grey" points="4414.14,-231.659 4404.12,-235.123 4414.11,-238.659 4414.14,-231.659"/>
</g>
<!-- 78&#45;&gt;0 -->
<g id="edge2" class="edge"><title>78&#45;&gt;0</title>
<path fill="none" stroke="grey" stroke-width="2" d="M4396.61,-71.6966C4392.24,-63.6436 4386.94,-53.8945 4382.1,-44.9824"/>
<polygon fill="grey" stroke="grey" points="4385.13,-43.223 4377.29,-36.1043 4378.98,-46.5627 4385.13,-43.223"/>
</g>
</g>
</svg>
